M48
;DRILL file {KiCad 5.0.2+dfsg1-1} date Sun 04 Aug 2019 09:33:40 PM EDT
;FORMAT={-:-/ absolute / inch / decimal}
FMAT,2
INCH,TZ
T1C0.0150
T2C0.0394
T3C0.0402
T4C0.0472
%
G90
G05
T1
X4.81Y-4.42
X4.81Y-4.93
X5.04Y-4.44
X5.18Y-4.56
X5.37Y-4.93
X5.39Y-4.63
X5.51Y-4.41
X6.03Y-4.44
X6.17Y-4.74
X6.17Y-4.82
X6.22Y-4.75
T2
X6.2923Y-4.4872
X6.2923Y-4.5856
X6.2923Y-4.6644
X6.2923Y-4.7628
T3
X5.12Y-4.41
X5.22Y-4.41
X5.32Y-4.41
X5.42Y-4.41
X5.59Y-4.41
X5.69Y-4.41
T4
X6.375Y-4.5344
X6.375Y-4.7156
T2
X6.3455Y-4.3947G85X6.4045Y-4.3947
G05
X6.3455Y-4.8553G85X6.4045Y-4.8553
G05
T0
M30
