G04 #@! TF.GenerationSoftware,KiCad,Pcbnew,5.0.2+dfsg1-1*
G04 #@! TF.CreationDate,2019-08-04T21:32:12-04:00*
G04 #@! TF.ProjectId,rigidkey,72696769-646b-4657-992e-6b696361645f,V01*
G04 #@! TF.SameCoordinates,Original*
G04 #@! TF.FileFunction,Copper,L1,Top*
G04 #@! TF.FilePolarity,Positive*
%FSLAX46Y46*%
G04 Gerber Fmt 4.6, Leading zero omitted, Abs format (unit mm)*
G04 Created by KiCad (PCBNEW 5.0.2+dfsg1-1) date Sun 04 Aug 2019 09:32:12 PM EDT*
%MOMM*%
%LPD*%
G01*
G04 APERTURE LIST*
G04 #@! TA.AperFunction,SMDPad,CuDef*
%ADD10R,1.905000X1.905000*%
G04 #@! TD*
G04 #@! TA.AperFunction,SMDPad,CuDef*
%ADD11R,0.749300X0.299720*%
G04 #@! TD*
G04 #@! TA.AperFunction,SMDPad,CuDef*
%ADD12R,0.299720X0.749300*%
G04 #@! TD*
G04 #@! TA.AperFunction,SMDPad,CuDef*
%ADD13R,1.500000X1.800000*%
G04 #@! TD*
G04 #@! TA.AperFunction,SMDPad,CuDef*
%ADD14R,1.800000X1.500000*%
G04 #@! TD*
G04 #@! TA.AperFunction,ComponentPad*
%ADD15C,2.020000*%
G04 #@! TD*
G04 #@! TA.AperFunction,ComponentPad*
%ADD16O,3.500000X2.000000*%
G04 #@! TD*
G04 #@! TA.AperFunction,ComponentPad*
%ADD17C,2.200000*%
G04 #@! TD*
G04 #@! TA.AperFunction,ComponentPad*
%ADD18C,1.800000*%
G04 #@! TD*
G04 #@! TA.AperFunction,SMDPad,CuDef*
%ADD19R,0.548640X1.198880*%
G04 #@! TD*
G04 #@! TA.AperFunction,SMDPad,CuDef*
%ADD20R,0.500380X0.398780*%
G04 #@! TD*
G04 #@! TA.AperFunction,SMDPad,CuDef*
%ADD21R,1.193800X1.397000*%
G04 #@! TD*
G04 #@! TA.AperFunction,ViaPad*
%ADD22C,0.762000*%
G04 #@! TD*
G04 #@! TA.AperFunction,Conductor*
%ADD23C,0.152400*%
G04 #@! TD*
G04 #@! TA.AperFunction,Conductor*
%ADD24C,0.254000*%
G04 #@! TD*
G04 APERTURE END LIST*
D10*
G04 #@! TO.P,U1,37*
G04 #@! TO.N,GND*
X131953000Y-120675400D03*
X134035800Y-120675400D03*
X134035800Y-118592600D03*
D11*
G04 #@! TO.P,U1,1*
G04 #@! TO.N,+3V3*
X130218180Y-117632480D03*
G04 #@! TO.P,U1,2*
G04 #@! TO.N,Net-(C1-Pad1)*
X130218180Y-118132860D03*
G04 #@! TO.P,U1,3*
G04 #@! TO.N,Net-(C2-Pad2)*
X130218180Y-118633240D03*
G04 #@! TO.P,U1,4*
G04 #@! TO.N,Net-(C3-Pad1)*
X130218180Y-119133620D03*
G04 #@! TO.P,U1,5*
G04 #@! TO.N,GND*
X130218180Y-119634000D03*
G04 #@! TO.P,U1,6*
G04 #@! TO.N,+3V3*
X130218180Y-120134380D03*
G04 #@! TO.P,U1,7*
G04 #@! TO.N,Net-(U1-Pad7)*
X130218180Y-120634760D03*
G04 #@! TO.P,U1,8*
G04 #@! TO.N,Net-(U1-Pad8)*
X130218180Y-121135140D03*
G04 #@! TO.P,U1,9*
G04 #@! TO.N,Net-(U1-Pad9)*
X130218180Y-121635520D03*
D12*
G04 #@! TO.P,U1,10*
G04 #@! TO.N,Net-(U1-Pad10)*
X130992880Y-122410220D03*
G04 #@! TO.P,U1,11*
G04 #@! TO.N,Net-(U1-Pad11)*
X131493260Y-122410220D03*
G04 #@! TO.P,U1,12*
G04 #@! TO.N,Net-(U1-Pad12)*
X131993640Y-122410220D03*
G04 #@! TO.P,U1,13*
G04 #@! TO.N,Net-(U1-Pad13)*
X132494020Y-122410220D03*
G04 #@! TO.P,U1,14*
G04 #@! TO.N,Net-(U1-Pad14)*
X132994400Y-122410220D03*
G04 #@! TO.P,U1,15*
G04 #@! TO.N,Net-(R1-Pad1)*
X133494780Y-122410220D03*
G04 #@! TO.P,U1,16*
G04 #@! TO.N,Net-(U1-Pad16)*
X133995160Y-122410220D03*
G04 #@! TO.P,U1,17*
G04 #@! TO.N,Net-(R2-Pad1)*
X134495540Y-122410220D03*
G04 #@! TO.P,U1,18*
G04 #@! TO.N,GND*
X134995920Y-122410220D03*
D11*
G04 #@! TO.P,U1,19*
G04 #@! TO.N,+3V3*
X135770620Y-121635520D03*
G04 #@! TO.P,U1,20*
G04 #@! TO.N,Net-(U1-Pad20)*
X135770620Y-121135140D03*
G04 #@! TO.P,U1,21*
G04 #@! TO.N,Net-(U1-Pad21)*
X135770620Y-120634760D03*
G04 #@! TO.P,U1,22*
G04 #@! TO.N,Net-(U1-Pad22)*
X135770620Y-120134380D03*
G04 #@! TO.P,U1,23*
G04 #@! TO.N,Net-(U1-Pad23)*
X135770620Y-119634000D03*
G04 #@! TO.P,U1,24*
G04 #@! TO.N,Net-(U1-Pad24)*
X135770620Y-119133620D03*
G04 #@! TO.P,U1,25*
G04 #@! TO.N,Net-(J1-Pad4)*
X135770620Y-118633240D03*
G04 #@! TO.P,U1,26*
G04 #@! TO.N,GND*
X135770620Y-118132860D03*
G04 #@! TO.P,U1,27*
G04 #@! TO.N,+3V3*
X135770620Y-117632480D03*
D12*
G04 #@! TO.P,U1,28*
G04 #@! TO.N,Net-(J1-Pad3)*
X134995920Y-116857780D03*
G04 #@! TO.P,U1,29*
G04 #@! TO.N,Net-(U1-Pad29)*
X134495540Y-116857780D03*
G04 #@! TO.P,U1,30*
G04 #@! TO.N,Net-(U1-Pad30)*
X133995160Y-116857780D03*
G04 #@! TO.P,U1,31*
G04 #@! TO.N,Net-(U1-Pad31)*
X133494780Y-116857780D03*
G04 #@! TO.P,U1,32*
G04 #@! TO.N,Net-(U1-Pad32)*
X132994400Y-116857780D03*
G04 #@! TO.P,U1,33*
G04 #@! TO.N,Net-(U1-Pad33)*
X132494020Y-116857780D03*
G04 #@! TO.P,U1,34*
G04 #@! TO.N,Net-(U1-Pad34)*
X131993640Y-116857780D03*
G04 #@! TO.P,U1,35*
G04 #@! TO.N,/BOOTO*
X131493260Y-116857780D03*
G04 #@! TO.P,U1,36*
G04 #@! TO.N,GND*
X130992880Y-116857780D03*
D10*
G04 #@! TO.P,U1,37*
X131953000Y-118592600D03*
G04 #@! TD*
D13*
G04 #@! TO.P,C9,1*
G04 #@! TO.N,+3V3*
X156740000Y-124460000D03*
G04 #@! TO.P,C9,2*
G04 #@! TO.N,GND*
X153140000Y-124460000D03*
G04 #@! TD*
G04 #@! TO.P,C6,2*
G04 #@! TO.N,GND*
X141500000Y-125222000D03*
G04 #@! TO.P,C6,1*
G04 #@! TO.N,+3V3*
X137900000Y-125222000D03*
G04 #@! TD*
G04 #@! TO.P,C10,2*
G04 #@! TO.N,GND*
X147806000Y-117348000D03*
G04 #@! TO.P,C10,1*
G04 #@! TO.N,Net-(C10-Pad1)*
X151406000Y-117348000D03*
G04 #@! TD*
G04 #@! TO.P,C1,1*
G04 #@! TO.N,Net-(C1-Pad1)*
X120672000Y-113538000D03*
G04 #@! TO.P,C1,2*
G04 #@! TO.N,GND*
X117072000Y-113538000D03*
G04 #@! TD*
G04 #@! TO.P,C2,2*
G04 #@! TO.N,Net-(C2-Pad2)*
X120672000Y-116586000D03*
G04 #@! TO.P,C2,1*
G04 #@! TO.N,GND*
X117072000Y-116586000D03*
G04 #@! TD*
D14*
G04 #@! TO.P,C3,1*
G04 #@! TO.N,Net-(C3-Pad1)*
X125476000Y-118872000D03*
G04 #@! TO.P,C3,2*
G04 #@! TO.N,GND*
X125476000Y-122472000D03*
G04 #@! TD*
G04 #@! TO.P,C4,2*
G04 #@! TO.N,GND*
X122174000Y-119126000D03*
G04 #@! TO.P,C4,1*
G04 #@! TO.N,+3V3*
X122174000Y-122726000D03*
G04 #@! TD*
D13*
G04 #@! TO.P,C5,1*
G04 #@! TO.N,GND*
X123146000Y-110236000D03*
G04 #@! TO.P,C5,2*
G04 #@! TO.N,+3V3*
X126746000Y-110236000D03*
G04 #@! TD*
G04 #@! TO.P,C7,1*
G04 #@! TO.N,GND*
X151130000Y-110236000D03*
G04 #@! TO.P,C7,2*
G04 #@! TO.N,+3V3*
X147530000Y-110236000D03*
G04 #@! TD*
G04 #@! TO.P,C8,1*
G04 #@! TO.N,Net-(C8-Pad1)*
X153648000Y-109728000D03*
G04 #@! TO.P,C8,2*
G04 #@! TO.N,GND*
X157248000Y-109728000D03*
G04 #@! TD*
D14*
G04 #@! TO.P,D1,1*
G04 #@! TO.N,GND*
X117094000Y-119104000D03*
G04 #@! TO.P,D1,2*
G04 #@! TO.N,Net-(D1-Pad2)*
X117094000Y-122704000D03*
G04 #@! TD*
D15*
G04 #@! TO.P,J1,1*
G04 #@! TO.N,+3V3*
X130048000Y-112014000D03*
G04 #@! TO.P,J1,2*
G04 #@! TO.N,GND*
X132588000Y-112014000D03*
G04 #@! TO.P,J1,3*
G04 #@! TO.N,Net-(J1-Pad3)*
X135128000Y-112014000D03*
G04 #@! TO.P,J1,4*
G04 #@! TO.N,Net-(J1-Pad4)*
X137668000Y-112014000D03*
G04 #@! TD*
D16*
G04 #@! TO.P,J2,5*
G04 #@! TO.N,GND*
X161925000Y-123325000D03*
X161925000Y-111625000D03*
D17*
X161925000Y-119775000D03*
X161925000Y-115175000D03*
D18*
G04 #@! TO.P,J2,4*
X159825000Y-120975000D03*
G04 #@! TO.P,J2,3*
G04 #@! TO.N,Net-(J2-Pad3)*
X159825000Y-118475000D03*
G04 #@! TO.P,J2,2*
G04 #@! TO.N,Net-(J2-Pad2)*
X159825000Y-116475000D03*
G04 #@! TO.P,J2,1*
G04 #@! TO.N,Net-(C10-Pad1)*
X159825000Y-113975000D03*
G04 #@! TD*
D15*
G04 #@! TO.P,JP1,1*
G04 #@! TO.N,/BOOTO*
X141986000Y-112014000D03*
G04 #@! TO.P,JP1,2*
G04 #@! TO.N,+3V3*
X144526000Y-112014000D03*
G04 #@! TD*
D13*
G04 #@! TO.P,R1,2*
G04 #@! TO.N,Net-(D1-Pad2)*
X124692000Y-125222000D03*
G04 #@! TO.P,R1,1*
G04 #@! TO.N,Net-(R1-Pad1)*
X128292000Y-125222000D03*
G04 #@! TD*
G04 #@! TO.P,R2,2*
G04 #@! TO.N,GND*
X134896000Y-125222000D03*
G04 #@! TO.P,R2,1*
G04 #@! TO.N,Net-(R2-Pad1)*
X131296000Y-125222000D03*
G04 #@! TD*
G04 #@! TO.P,R3,1*
G04 #@! TO.N,/BOOTO*
X147530000Y-114300000D03*
G04 #@! TO.P,R3,2*
G04 #@! TO.N,GND*
X151130000Y-114300000D03*
G04 #@! TD*
D19*
G04 #@! TO.P,U2,1*
G04 #@! TO.N,Net-(C10-Pad1)*
X154244040Y-115343940D03*
G04 #@! TO.P,U2,2*
G04 #@! TO.N,GND*
X155194000Y-115343940D03*
G04 #@! TO.P,U2,3*
G04 #@! TO.N,Net-(C10-Pad1)*
X156143960Y-115343940D03*
G04 #@! TO.P,U2,4*
G04 #@! TO.N,Net-(C8-Pad1)*
X156143960Y-112748060D03*
G04 #@! TO.P,U2,5*
G04 #@! TO.N,+3V3*
X154244000Y-112746000D03*
G04 #@! TD*
D20*
G04 #@! TO.P,U3,1*
G04 #@! TO.N,Net-(U1-Pad24)*
X153736040Y-119745760D03*
G04 #@! TO.P,U3,2*
G04 #@! TO.N,GND*
X153736040Y-120396000D03*
G04 #@! TO.P,U3,3*
G04 #@! TO.N,Net-(U1-Pad23)*
X153736040Y-121046240D03*
G04 #@! TO.P,U3,4*
G04 #@! TO.N,Net-(J2-Pad2)*
X155635960Y-121046240D03*
G04 #@! TO.P,U3,5*
G04 #@! TO.N,+3V3*
X155635960Y-120396000D03*
G04 #@! TO.P,U3,6*
G04 #@! TO.N,Net-(J2-Pad3)*
X155635960Y-119745760D03*
G04 #@! TD*
D21*
G04 #@! TO.P,X1,2*
G04 #@! TO.N,Net-(C2-Pad2)*
X125983385Y-116474768D03*
G04 #@! TO.P,X1,3*
G04 #@! TO.N,GND*
X124281585Y-116474768D03*
G04 #@! TO.P,X1,1*
G04 #@! TO.N,Net-(C1-Pad1)*
X124281585Y-114275128D03*
G04 #@! TO.P,X1,3*
G04 #@! TO.N,GND*
X125983385Y-114275128D03*
G04 #@! TD*
D22*
G04 #@! TO.N,+3V3*
X136398000Y-125222000D03*
X122174000Y-125222000D03*
X122174000Y-112268000D03*
X153162000Y-112776000D03*
X156718000Y-120396000D03*
X136906000Y-117602000D03*
X156718000Y-122428000D03*
X128016000Y-112776000D03*
G04 #@! TO.N,Net-(J2-Pad2)*
X157988000Y-120650000D03*
G04 #@! TO.N,/BOOTO*
X139954000Y-112014000D03*
X131572000Y-115824000D03*
G04 #@! TD*
D23*
G04 #@! TO.N,Net-(C1-Pad1)*
X124281585Y-114173528D02*
X124281585Y-114275128D01*
X123544457Y-113538000D02*
X124281585Y-114275128D01*
X120672000Y-113538000D02*
X123544457Y-113538000D01*
X129691130Y-118132860D02*
X130218180Y-118132860D01*
X124281585Y-114376728D02*
X125452524Y-115547667D01*
X127105937Y-115547667D02*
X129691130Y-118132860D01*
X125452524Y-115547667D02*
X127105937Y-115547667D01*
X124281585Y-114275128D02*
X124281585Y-114376728D01*
G04 #@! TO.N,GND*
X117348000Y-113560000D02*
X117348000Y-114462400D01*
X130992880Y-117632480D02*
X130992880Y-116857780D01*
X131953000Y-118592600D02*
X130992880Y-117632480D01*
X134495540Y-118132860D02*
X135770620Y-118132860D01*
X134035800Y-118592600D02*
X134495540Y-118132860D01*
X134995920Y-121635520D02*
X134995920Y-122410220D01*
X134035800Y-120675400D02*
X134995920Y-121635520D01*
X131578001Y-113023999D02*
X132588000Y-112014000D01*
X130962399Y-113639601D02*
X131578001Y-113023999D01*
X130962399Y-116602509D02*
X130962399Y-113639601D01*
X130992880Y-116632990D02*
X130962399Y-116602509D01*
X130992880Y-116857780D02*
X130992880Y-116632990D01*
G04 #@! TO.N,Net-(C2-Pad2)*
X126193385Y-116684768D02*
X125983385Y-116474768D01*
X125983385Y-116474768D02*
X125983385Y-116373168D01*
X125983385Y-116576368D02*
X125983385Y-116474768D01*
X125157884Y-117401869D02*
X125983385Y-116576368D01*
X123501804Y-117401869D02*
X125157884Y-117401869D01*
X122685935Y-116586000D02*
X123501804Y-117401869D01*
X120672000Y-116586000D02*
X122685935Y-116586000D01*
X129691130Y-118633240D02*
X130218180Y-118633240D01*
X128891157Y-118633240D02*
X129691130Y-118633240D01*
X126732685Y-116474768D02*
X128891157Y-118633240D01*
X125983385Y-116474768D02*
X126732685Y-116474768D01*
G04 #@! TO.N,Net-(C3-Pad1)*
X129691130Y-119133620D02*
X130218180Y-119133620D01*
X126790020Y-119133620D02*
X129691130Y-119133620D01*
X126528400Y-118872000D02*
X126790020Y-119133620D01*
X125476000Y-118872000D02*
X126528400Y-118872000D01*
D24*
G04 #@! TO.N,+3V3*
X145954355Y-112014000D02*
X144526000Y-112014000D01*
X146906000Y-112014000D02*
X145954355Y-112014000D01*
X147530000Y-111390000D02*
X146906000Y-112014000D01*
X147530000Y-110236000D02*
X147530000Y-111390000D01*
X137900000Y-123540110D02*
X135995410Y-121635520D01*
X135995410Y-121635520D02*
X135770620Y-121635520D01*
X137900000Y-125222000D02*
X137900000Y-123540110D01*
X137900000Y-125222000D02*
X136398000Y-125222000D01*
X122174000Y-125222000D02*
X122174000Y-122726000D01*
X129589530Y-120134380D02*
X130218180Y-120134380D01*
X129548890Y-120134380D02*
X129589530Y-120134380D01*
X127196599Y-122486671D02*
X129548890Y-120134380D01*
X127196599Y-123501401D02*
X127196599Y-122486671D01*
X124103401Y-123501401D02*
X127196599Y-123501401D01*
X123328000Y-122726000D02*
X124103401Y-123501401D01*
X122174000Y-122726000D02*
X123328000Y-122726000D01*
X125742000Y-110236000D02*
X126746000Y-110236000D01*
X122554999Y-111887001D02*
X124090999Y-111887001D01*
X124090999Y-111887001D02*
X125742000Y-110236000D01*
X122174000Y-112268000D02*
X122554999Y-111887001D01*
X128270000Y-110236000D02*
X130048000Y-112014000D01*
X126746000Y-110236000D02*
X128270000Y-110236000D01*
X130187700Y-117602000D02*
X130218180Y-117632480D01*
X154244000Y-112746000D02*
X153192000Y-112746000D01*
X153192000Y-112746000D02*
X153162000Y-112776000D01*
X135801100Y-117602000D02*
X135770620Y-117632480D01*
X136906000Y-117602000D02*
X135801100Y-117602000D01*
X156718000Y-124438000D02*
X156740000Y-124460000D01*
X156718000Y-122428000D02*
X156718000Y-124438000D01*
X156718000Y-120396000D02*
X155635960Y-120396000D01*
X130218180Y-114978180D02*
X130218180Y-117632480D01*
X128016000Y-112776000D02*
X130218180Y-114978180D01*
D23*
G04 #@! TO.N,Net-(C8-Pad1)*
X156143960Y-112422940D02*
X156143960Y-112748060D01*
X153648000Y-109926980D02*
X156143960Y-112422940D01*
X153648000Y-109728000D02*
X153648000Y-109926980D01*
D24*
G04 #@! TO.N,Net-(C10-Pad1)*
X158456060Y-115343940D02*
X159825000Y-113975000D01*
X156143960Y-115343940D02*
X158456060Y-115343940D01*
D23*
X154746961Y-116171981D02*
X154244040Y-115669060D01*
X156143960Y-115679222D02*
X155651201Y-116171981D01*
X154244040Y-115669060D02*
X154244040Y-115343940D01*
X155651201Y-116171981D02*
X154746961Y-116171981D01*
X156143960Y-115343940D02*
X156143960Y-115679222D01*
X152308400Y-117348000D02*
X151406000Y-117348000D01*
X152991820Y-117348000D02*
X152308400Y-117348000D01*
X154244040Y-116095780D02*
X152991820Y-117348000D01*
X154244040Y-115343940D02*
X154244040Y-116095780D01*
G04 #@! TO.N,Net-(D1-Pad2)*
X119319201Y-125831601D02*
X123179999Y-125831601D01*
X123179999Y-125831601D02*
X123789600Y-125222000D01*
X117094000Y-123606400D02*
X119319201Y-125831601D01*
X123789600Y-125222000D02*
X124692000Y-125222000D01*
X117094000Y-122704000D02*
X117094000Y-123606400D01*
G04 #@! TO.N,Net-(J1-Pad3)*
X135128000Y-116725700D02*
X134995920Y-116857780D01*
X135128000Y-112014000D02*
X135128000Y-116725700D01*
G04 #@! TO.N,Net-(J1-Pad4)*
X136297670Y-118633240D02*
X135770620Y-118633240D01*
X136776970Y-118633240D02*
X136297670Y-118633240D01*
X137668000Y-117742210D02*
X136776970Y-118633240D01*
X137668000Y-112014000D02*
X137668000Y-117742210D01*
G04 #@! TO.N,Net-(J2-Pad3)*
X158554240Y-119745760D02*
X159825000Y-118475000D01*
X155635960Y-119745760D02*
X158554240Y-119745760D01*
G04 #@! TO.N,Net-(J2-Pad2)*
X155635960Y-121046240D02*
X157591760Y-121046240D01*
X157591760Y-121046240D02*
X157988000Y-120650000D01*
G04 #@! TO.N,/BOOTO*
X144272000Y-114300000D02*
X147530000Y-114300000D01*
X141986000Y-112014000D02*
X144272000Y-114300000D01*
X141986000Y-112014000D02*
X139954000Y-112014000D01*
X131572000Y-115824000D02*
X131572000Y-116840000D01*
G04 #@! TO.N,Net-(R1-Pad1)*
X133494780Y-122937270D02*
X133494780Y-122410220D01*
X133418579Y-123013471D02*
X133494780Y-122937270D01*
X130350529Y-123013471D02*
X133418579Y-123013471D01*
X128292000Y-125072000D02*
X130350529Y-123013471D01*
X128292000Y-125222000D02*
X128292000Y-125072000D01*
G04 #@! TO.N,Net-(R2-Pad1)*
X134495540Y-122937270D02*
X134495540Y-122410220D01*
X132210810Y-125222000D02*
X134495540Y-122937270D01*
X131296000Y-125222000D02*
X132210810Y-125222000D01*
G04 #@! TO.N,Net-(U1-Pad23)*
X153525218Y-121046240D02*
X153736040Y-121046240D01*
X152112978Y-119634000D02*
X153525218Y-121046240D01*
X135770620Y-119634000D02*
X152112978Y-119634000D01*
G04 #@! TO.N,Net-(U1-Pad24)*
X153736040Y-119393970D02*
X153736040Y-119745760D01*
X153475690Y-119133620D02*
X153736040Y-119393970D01*
X135770620Y-119133620D02*
X153475690Y-119133620D01*
G04 #@! TD*
G04 #@! TO.N,GND*
G36*
X164833301Y-126733300D02*
X114566700Y-126733300D01*
X114566700Y-121954000D01*
X115935024Y-121954000D01*
X115935024Y-123454000D01*
X115954737Y-123553106D01*
X116010876Y-123637124D01*
X116094894Y-123693263D01*
X116194000Y-123712976D01*
X116778530Y-123712976D01*
X116782958Y-123735237D01*
X116837517Y-123816890D01*
X116837519Y-123816892D01*
X116855940Y-123844461D01*
X116883509Y-123862882D01*
X119062717Y-126042090D01*
X119081140Y-126069662D01*
X119190363Y-126142643D01*
X119286679Y-126161801D01*
X119286683Y-126161801D01*
X119319200Y-126168269D01*
X119351717Y-126161801D01*
X123147477Y-126161801D01*
X123179999Y-126168270D01*
X123212521Y-126161801D01*
X123308837Y-126142643D01*
X123418060Y-126069662D01*
X123436483Y-126042090D01*
X123683024Y-125795549D01*
X123683024Y-126122000D01*
X123702737Y-126221106D01*
X123758876Y-126305124D01*
X123842894Y-126361263D01*
X123942000Y-126380976D01*
X125442000Y-126380976D01*
X125541106Y-126361263D01*
X125625124Y-126305124D01*
X125681263Y-126221106D01*
X125700976Y-126122000D01*
X125700976Y-124322000D01*
X125681263Y-124222894D01*
X125625124Y-124138876D01*
X125541106Y-124082737D01*
X125442000Y-124063024D01*
X123942000Y-124063024D01*
X123842894Y-124082737D01*
X123758876Y-124138876D01*
X123702737Y-124222894D01*
X123683024Y-124322000D01*
X123683024Y-124906530D01*
X123660762Y-124910958D01*
X123612566Y-124943162D01*
X123551539Y-124983939D01*
X123533117Y-125011509D01*
X123043226Y-125501401D01*
X122745587Y-125501401D01*
X122809000Y-125348309D01*
X122809000Y-125095691D01*
X122712327Y-124862302D01*
X122555000Y-124704975D01*
X122555000Y-123734976D01*
X123074000Y-123734976D01*
X123173106Y-123715263D01*
X123257124Y-123659124D01*
X123313263Y-123575106D01*
X123332976Y-123476000D01*
X123332976Y-123269791D01*
X123807457Y-123744272D01*
X123828715Y-123776087D01*
X123931045Y-123844461D01*
X123954742Y-123860295D01*
X124103401Y-123889865D01*
X124140925Y-123882401D01*
X127159075Y-123882401D01*
X127196599Y-123889865D01*
X127234123Y-123882401D01*
X127345258Y-123860295D01*
X127471285Y-123776087D01*
X127555493Y-123650060D01*
X127585063Y-123501401D01*
X127577599Y-123463877D01*
X127577599Y-122644486D01*
X129584554Y-120637532D01*
X129584554Y-120784620D01*
X129604267Y-120883726D01*
X129605085Y-120884950D01*
X129604267Y-120886174D01*
X129584554Y-120985280D01*
X129584554Y-121285000D01*
X129604267Y-121384106D01*
X129605085Y-121385330D01*
X129604267Y-121386554D01*
X129584554Y-121485660D01*
X129584554Y-121785380D01*
X129604267Y-121884486D01*
X129660406Y-121968504D01*
X129744424Y-122024643D01*
X129843530Y-122044356D01*
X130584044Y-122044356D01*
X130584044Y-122683271D01*
X130383051Y-122683271D01*
X130350529Y-122676802D01*
X130318007Y-122683271D01*
X130221691Y-122702429D01*
X130112468Y-122775410D01*
X130094046Y-122802981D01*
X128834003Y-124063024D01*
X127542000Y-124063024D01*
X127442894Y-124082737D01*
X127358876Y-124138876D01*
X127302737Y-124222894D01*
X127283024Y-124322000D01*
X127283024Y-126122000D01*
X127302737Y-126221106D01*
X127358876Y-126305124D01*
X127442894Y-126361263D01*
X127542000Y-126380976D01*
X129042000Y-126380976D01*
X129141106Y-126361263D01*
X129225124Y-126305124D01*
X129281263Y-126221106D01*
X129300976Y-126122000D01*
X129300976Y-124529997D01*
X130487302Y-123343671D01*
X133386057Y-123343671D01*
X133418579Y-123350140D01*
X133451101Y-123343671D01*
X133547417Y-123324513D01*
X133656640Y-123251532D01*
X133675064Y-123223958D01*
X133705269Y-123193754D01*
X133732840Y-123175331D01*
X133805822Y-123066108D01*
X133811584Y-123037140D01*
X133845300Y-123043846D01*
X133921990Y-123043846D01*
X132304976Y-124660861D01*
X132304976Y-124322000D01*
X132285263Y-124222894D01*
X132229124Y-124138876D01*
X132145106Y-124082737D01*
X132046000Y-124063024D01*
X130546000Y-124063024D01*
X130446894Y-124082737D01*
X130362876Y-124138876D01*
X130306737Y-124222894D01*
X130287024Y-124322000D01*
X130287024Y-126122000D01*
X130306737Y-126221106D01*
X130362876Y-126305124D01*
X130446894Y-126361263D01*
X130546000Y-126380976D01*
X132046000Y-126380976D01*
X132145106Y-126361263D01*
X132229124Y-126305124D01*
X132285263Y-126221106D01*
X132304976Y-126122000D01*
X132304976Y-125545850D01*
X133561800Y-125545850D01*
X133561800Y-126238204D01*
X133650739Y-126452922D01*
X133815077Y-126617261D01*
X134029795Y-126706200D01*
X134572150Y-126706200D01*
X134718200Y-126560150D01*
X134718200Y-125399800D01*
X133707850Y-125399800D01*
X133561800Y-125545850D01*
X132304976Y-125545850D01*
X132304976Y-125539939D01*
X132339648Y-125533042D01*
X132448871Y-125460061D01*
X132467294Y-125432489D01*
X133561800Y-124337983D01*
X133561800Y-124898150D01*
X133707850Y-125044200D01*
X134718200Y-125044200D01*
X134718200Y-123883850D01*
X134572150Y-123737800D01*
X134161984Y-123737800D01*
X134589041Y-123310743D01*
X134729856Y-123369070D01*
X134774940Y-123369070D01*
X134920990Y-123223020D01*
X134920990Y-122588020D01*
X135070850Y-122588020D01*
X135070850Y-123223020D01*
X135216900Y-123369070D01*
X135261984Y-123369070D01*
X135476702Y-123280131D01*
X135641041Y-123115793D01*
X135729980Y-122901075D01*
X135729980Y-122734070D01*
X135583930Y-122588020D01*
X135070850Y-122588020D01*
X134920990Y-122588020D01*
X134904376Y-122588020D01*
X134904376Y-122232420D01*
X134920990Y-122232420D01*
X134920990Y-122212420D01*
X135070850Y-122212420D01*
X135070850Y-122232420D01*
X135583930Y-122232420D01*
X135729980Y-122086370D01*
X135729980Y-122044356D01*
X135865431Y-122044356D01*
X137519001Y-123697927D01*
X137519001Y-124063024D01*
X137150000Y-124063024D01*
X137050894Y-124082737D01*
X136966876Y-124138876D01*
X136910737Y-124222894D01*
X136891024Y-124322000D01*
X136891024Y-124816999D01*
X136757698Y-124683673D01*
X136524309Y-124587000D01*
X136271691Y-124587000D01*
X136230200Y-124604186D01*
X136230200Y-124205796D01*
X136141261Y-123991078D01*
X135976923Y-123826739D01*
X135762205Y-123737800D01*
X135219850Y-123737800D01*
X135073800Y-123883850D01*
X135073800Y-125044200D01*
X135093800Y-125044200D01*
X135093800Y-125399800D01*
X135073800Y-125399800D01*
X135073800Y-126560150D01*
X135219850Y-126706200D01*
X135762205Y-126706200D01*
X135976923Y-126617261D01*
X136141261Y-126452922D01*
X136230200Y-126238204D01*
X136230200Y-125839814D01*
X136271691Y-125857000D01*
X136524309Y-125857000D01*
X136757698Y-125760327D01*
X136891024Y-125627001D01*
X136891024Y-126122000D01*
X136910737Y-126221106D01*
X136966876Y-126305124D01*
X137050894Y-126361263D01*
X137150000Y-126380976D01*
X138650000Y-126380976D01*
X138749106Y-126361263D01*
X138833124Y-126305124D01*
X138889263Y-126221106D01*
X138908976Y-126122000D01*
X138908976Y-125545850D01*
X140165800Y-125545850D01*
X140165800Y-126238204D01*
X140254739Y-126452922D01*
X140419077Y-126617261D01*
X140633795Y-126706200D01*
X141176150Y-126706200D01*
X141322200Y-126560150D01*
X141322200Y-125399800D01*
X141677800Y-125399800D01*
X141677800Y-126560150D01*
X141823850Y-126706200D01*
X142366205Y-126706200D01*
X142580923Y-126617261D01*
X142745261Y-126452922D01*
X142834200Y-126238204D01*
X142834200Y-125545850D01*
X142688150Y-125399800D01*
X141677800Y-125399800D01*
X141322200Y-125399800D01*
X140311850Y-125399800D01*
X140165800Y-125545850D01*
X138908976Y-125545850D01*
X138908976Y-124322000D01*
X138889263Y-124222894D01*
X138877839Y-124205796D01*
X140165800Y-124205796D01*
X140165800Y-124898150D01*
X140311850Y-125044200D01*
X141322200Y-125044200D01*
X141322200Y-123883850D01*
X141677800Y-123883850D01*
X141677800Y-125044200D01*
X142688150Y-125044200D01*
X142834200Y-124898150D01*
X142834200Y-124783850D01*
X151805800Y-124783850D01*
X151805800Y-125476204D01*
X151894739Y-125690922D01*
X152059077Y-125855261D01*
X152273795Y-125944200D01*
X152816150Y-125944200D01*
X152962200Y-125798150D01*
X152962200Y-124637800D01*
X153317800Y-124637800D01*
X153317800Y-125798150D01*
X153463850Y-125944200D01*
X154006205Y-125944200D01*
X154220923Y-125855261D01*
X154385261Y-125690922D01*
X154474200Y-125476204D01*
X154474200Y-124783850D01*
X154328150Y-124637800D01*
X153317800Y-124637800D01*
X152962200Y-124637800D01*
X151951850Y-124637800D01*
X151805800Y-124783850D01*
X142834200Y-124783850D01*
X142834200Y-124205796D01*
X142745261Y-123991078D01*
X142580923Y-123826739D01*
X142366205Y-123737800D01*
X141823850Y-123737800D01*
X141677800Y-123883850D01*
X141322200Y-123883850D01*
X141176150Y-123737800D01*
X140633795Y-123737800D01*
X140419077Y-123826739D01*
X140254739Y-123991078D01*
X140165800Y-124205796D01*
X138877839Y-124205796D01*
X138833124Y-124138876D01*
X138749106Y-124082737D01*
X138650000Y-124063024D01*
X138281000Y-124063024D01*
X138281000Y-123577633D01*
X138288464Y-123540109D01*
X138269307Y-123443796D01*
X151805800Y-123443796D01*
X151805800Y-124136150D01*
X151951850Y-124282200D01*
X152962200Y-124282200D01*
X152962200Y-123121850D01*
X153317800Y-123121850D01*
X153317800Y-124282200D01*
X154328150Y-124282200D01*
X154474200Y-124136150D01*
X154474200Y-123560000D01*
X155731024Y-123560000D01*
X155731024Y-125360000D01*
X155750737Y-125459106D01*
X155806876Y-125543124D01*
X155890894Y-125599263D01*
X155990000Y-125618976D01*
X157490000Y-125618976D01*
X157589106Y-125599263D01*
X157673124Y-125543124D01*
X157729263Y-125459106D01*
X157748976Y-125360000D01*
X157748976Y-123746869D01*
X159648004Y-123746869D01*
X159929078Y-124319475D01*
X160404487Y-124720569D01*
X160997200Y-124909200D01*
X161747200Y-124909200D01*
X161747200Y-123502800D01*
X162102800Y-123502800D01*
X162102800Y-124909200D01*
X162852800Y-124909200D01*
X163445513Y-124720569D01*
X163920922Y-124319475D01*
X164201996Y-123746869D01*
X164102117Y-123502800D01*
X162102800Y-123502800D01*
X161747200Y-123502800D01*
X159747883Y-123502800D01*
X159648004Y-123746869D01*
X157748976Y-123746869D01*
X157748976Y-123560000D01*
X157729263Y-123460894D01*
X157673124Y-123376876D01*
X157589106Y-123320737D01*
X157490000Y-123301024D01*
X157099000Y-123301024D01*
X157099000Y-122945025D01*
X157256327Y-122787698D01*
X157353000Y-122554309D01*
X157353000Y-122301691D01*
X157256327Y-122068302D01*
X157077698Y-121889673D01*
X156844309Y-121793000D01*
X156591691Y-121793000D01*
X156358302Y-121889673D01*
X156179673Y-122068302D01*
X156083000Y-122301691D01*
X156083000Y-122554309D01*
X156179673Y-122787698D01*
X156337000Y-122945025D01*
X156337000Y-123301024D01*
X155990000Y-123301024D01*
X155890894Y-123320737D01*
X155806876Y-123376876D01*
X155750737Y-123460894D01*
X155731024Y-123560000D01*
X154474200Y-123560000D01*
X154474200Y-123443796D01*
X154385261Y-123229078D01*
X154220923Y-123064739D01*
X154006205Y-122975800D01*
X153463850Y-122975800D01*
X153317800Y-123121850D01*
X152962200Y-123121850D01*
X152816150Y-122975800D01*
X152273795Y-122975800D01*
X152059077Y-123064739D01*
X151894739Y-123229078D01*
X151805800Y-123443796D01*
X138269307Y-123443796D01*
X138258894Y-123391451D01*
X138231142Y-123349917D01*
X138174686Y-123265424D01*
X138142874Y-123244168D01*
X136404246Y-121505541D01*
X136404246Y-121485660D01*
X136384533Y-121386554D01*
X136383715Y-121385330D01*
X136384533Y-121384106D01*
X136404246Y-121285000D01*
X136404246Y-120985280D01*
X136384533Y-120886174D01*
X136383715Y-120884950D01*
X136384533Y-120883726D01*
X136404246Y-120784620D01*
X136404246Y-120484900D01*
X136384533Y-120385794D01*
X136383715Y-120384570D01*
X136384533Y-120383346D01*
X136404246Y-120284240D01*
X136404246Y-119984520D01*
X136400204Y-119964200D01*
X151976205Y-119964200D01*
X153226874Y-121214870D01*
X153226874Y-121245630D01*
X153246587Y-121344736D01*
X153302726Y-121428754D01*
X153386744Y-121484893D01*
X153485850Y-121504606D01*
X153986230Y-121504606D01*
X154085336Y-121484893D01*
X154169354Y-121428754D01*
X154225493Y-121344736D01*
X154245206Y-121245630D01*
X154245206Y-121120452D01*
X154317152Y-121090651D01*
X154481491Y-120926313D01*
X154570430Y-120711595D01*
X154570430Y-120641745D01*
X154424380Y-120495695D01*
X153861135Y-120495695D01*
X153861135Y-120587874D01*
X153610945Y-120587874D01*
X153610945Y-120495695D01*
X153538240Y-120495695D01*
X153538240Y-120296305D01*
X153610945Y-120296305D01*
X153610945Y-120204126D01*
X153861135Y-120204126D01*
X153861135Y-120296305D01*
X154424380Y-120296305D01*
X154570430Y-120150255D01*
X154570430Y-120080405D01*
X154481491Y-119865687D01*
X154317152Y-119701349D01*
X154245206Y-119671548D01*
X154245206Y-119546370D01*
X154225493Y-119447264D01*
X154169354Y-119363246D01*
X154085336Y-119307107D01*
X154054199Y-119300914D01*
X154047082Y-119265132D01*
X153992523Y-119183480D01*
X153992522Y-119183479D01*
X153974100Y-119155909D01*
X153946531Y-119137488D01*
X153732173Y-118923130D01*
X153713751Y-118895559D01*
X153604528Y-118822578D01*
X153508212Y-118803420D01*
X153475690Y-118796951D01*
X153443168Y-118803420D01*
X148741686Y-118803420D01*
X148886923Y-118743261D01*
X149051261Y-118578922D01*
X149140200Y-118364204D01*
X149140200Y-117671850D01*
X148994150Y-117525800D01*
X147983800Y-117525800D01*
X147983800Y-117545800D01*
X147628200Y-117545800D01*
X147628200Y-117525800D01*
X146617850Y-117525800D01*
X146471800Y-117671850D01*
X146471800Y-118364204D01*
X146560739Y-118578922D01*
X146725077Y-118743261D01*
X146870314Y-118803420D01*
X137073763Y-118803420D01*
X137878489Y-117998694D01*
X137906061Y-117980271D01*
X137979042Y-117871048D01*
X137998200Y-117774732D01*
X138004669Y-117742210D01*
X137998200Y-117709688D01*
X137998200Y-116331796D01*
X146471800Y-116331796D01*
X146471800Y-117024150D01*
X146617850Y-117170200D01*
X147628200Y-117170200D01*
X147628200Y-116009850D01*
X147983800Y-116009850D01*
X147983800Y-117170200D01*
X148994150Y-117170200D01*
X149140200Y-117024150D01*
X149140200Y-116448000D01*
X150397024Y-116448000D01*
X150397024Y-118248000D01*
X150416737Y-118347106D01*
X150472876Y-118431124D01*
X150556894Y-118487263D01*
X150656000Y-118506976D01*
X152156000Y-118506976D01*
X152255106Y-118487263D01*
X152339124Y-118431124D01*
X152395263Y-118347106D01*
X152414976Y-118248000D01*
X152414976Y-117678200D01*
X152959298Y-117678200D01*
X152991820Y-117684669D01*
X153024342Y-117678200D01*
X153120658Y-117659042D01*
X153229881Y-117586061D01*
X153248304Y-117558489D01*
X154454529Y-116352264D01*
X154457971Y-116349964D01*
X154490477Y-116382470D01*
X154508900Y-116410042D01*
X154597463Y-116469218D01*
X154618123Y-116483023D01*
X154746961Y-116508650D01*
X154754266Y-116507197D01*
X154803475Y-116527580D01*
X154910790Y-116527580D01*
X154936189Y-116502181D01*
X155451811Y-116502181D01*
X155477210Y-116527580D01*
X155584525Y-116527580D01*
X155637031Y-116505831D01*
X155651201Y-116508650D01*
X155683723Y-116502181D01*
X155780039Y-116483023D01*
X155889262Y-116410042D01*
X155907685Y-116382470D01*
X156087799Y-116202356D01*
X156418280Y-116202356D01*
X156517386Y-116182643D01*
X156601404Y-116126504D01*
X156657543Y-116042486D01*
X156677256Y-115943380D01*
X156677256Y-115724940D01*
X158418536Y-115724940D01*
X158456060Y-115732404D01*
X158493584Y-115724940D01*
X158604719Y-115702834D01*
X158730746Y-115618626D01*
X158752004Y-115586811D01*
X159322766Y-115016049D01*
X159595455Y-115129000D01*
X160054545Y-115129000D01*
X160229646Y-115056471D01*
X160251999Y-115402788D01*
X160054545Y-115321000D01*
X159595455Y-115321000D01*
X159171312Y-115496686D01*
X158846686Y-115821312D01*
X158671000Y-116245455D01*
X158671000Y-116704545D01*
X158846686Y-117128688D01*
X159171312Y-117453314D01*
X159223667Y-117475000D01*
X159171312Y-117496686D01*
X158846686Y-117821312D01*
X158671000Y-118245455D01*
X158671000Y-118704545D01*
X158804993Y-119028033D01*
X158417467Y-119415560D01*
X156104229Y-119415560D01*
X156069274Y-119363246D01*
X155985256Y-119307107D01*
X155886150Y-119287394D01*
X155385770Y-119287394D01*
X155286664Y-119307107D01*
X155202646Y-119363246D01*
X155146507Y-119447264D01*
X155126794Y-119546370D01*
X155126794Y-119945150D01*
X155146507Y-120044256D01*
X155164297Y-120070880D01*
X155146507Y-120097504D01*
X155126794Y-120196610D01*
X155126794Y-120595390D01*
X155146507Y-120694496D01*
X155164297Y-120721120D01*
X155146507Y-120747744D01*
X155126794Y-120846850D01*
X155126794Y-121245630D01*
X155146507Y-121344736D01*
X155202646Y-121428754D01*
X155286664Y-121484893D01*
X155385770Y-121504606D01*
X155886150Y-121504606D01*
X155985256Y-121484893D01*
X156069274Y-121428754D01*
X156104229Y-121376440D01*
X157559238Y-121376440D01*
X157591760Y-121382909D01*
X157624282Y-121376440D01*
X157720598Y-121357282D01*
X157829821Y-121284301D01*
X157836364Y-121274509D01*
X157861691Y-121285000D01*
X158114309Y-121285000D01*
X158347698Y-121188327D01*
X158352609Y-121183416D01*
X158368520Y-121385700D01*
X158504704Y-121714478D01*
X158740710Y-121807842D01*
X159573553Y-120975000D01*
X159559410Y-120960858D01*
X159810858Y-120709410D01*
X159825000Y-120723553D01*
X159839143Y-120709411D01*
X160090590Y-120960858D01*
X160076447Y-120975000D01*
X160090590Y-120989142D01*
X159839142Y-121240590D01*
X159825000Y-121226447D01*
X158992158Y-122059290D01*
X159085522Y-122295296D01*
X159647066Y-122477780D01*
X159865218Y-122460621D01*
X159648004Y-122903131D01*
X159747883Y-123147200D01*
X161747200Y-123147200D01*
X161747200Y-121740800D01*
X162102800Y-121740800D01*
X162102800Y-123147200D01*
X164102117Y-123147200D01*
X164201996Y-122903131D01*
X163920922Y-122330525D01*
X163445513Y-121929431D01*
X162852800Y-121740800D01*
X162102800Y-121740800D01*
X161747200Y-121740800D01*
X161078759Y-121740800D01*
X161145296Y-121714478D01*
X161269887Y-121331083D01*
X161699171Y-121477280D01*
X162367796Y-121434123D01*
X162785073Y-121261281D01*
X162903107Y-121004554D01*
X161925000Y-120026447D01*
X161910858Y-120040590D01*
X161659411Y-119789143D01*
X161673553Y-119775000D01*
X162176447Y-119775000D01*
X163154554Y-120753107D01*
X163411281Y-120635073D01*
X163627280Y-120000829D01*
X163584123Y-119332204D01*
X163411281Y-118914927D01*
X163154554Y-118796893D01*
X162176447Y-119775000D01*
X161673553Y-119775000D01*
X161659411Y-119760858D01*
X161910858Y-119509411D01*
X161925000Y-119523553D01*
X162903107Y-118545446D01*
X162785073Y-118288719D01*
X162150829Y-118072720D01*
X161482204Y-118115877D01*
X161064927Y-118288719D01*
X160979000Y-118475612D01*
X160979000Y-118245455D01*
X160803314Y-117821312D01*
X160478688Y-117496686D01*
X160426333Y-117475000D01*
X160478688Y-117453314D01*
X160803314Y-117128688D01*
X160979000Y-116704545D01*
X160979000Y-116474388D01*
X161064927Y-116661281D01*
X161699171Y-116877280D01*
X162367796Y-116834123D01*
X162785073Y-116661281D01*
X162903107Y-116404554D01*
X161925000Y-115426447D01*
X161910858Y-115440590D01*
X161659411Y-115189143D01*
X161673553Y-115175000D01*
X162176447Y-115175000D01*
X163154554Y-116153107D01*
X163411281Y-116035073D01*
X163627280Y-115400829D01*
X163584123Y-114732204D01*
X163411281Y-114314927D01*
X163154554Y-114196893D01*
X162176447Y-115175000D01*
X161673553Y-115175000D01*
X161659411Y-115160858D01*
X161910858Y-114909411D01*
X161925000Y-114923553D01*
X162903107Y-113945446D01*
X162785073Y-113688719D01*
X162150829Y-113472720D01*
X161482204Y-113515877D01*
X161064927Y-113688719D01*
X160979000Y-113875612D01*
X160979000Y-113745455D01*
X160803314Y-113321312D01*
X160548358Y-113066356D01*
X160997200Y-113209200D01*
X161747200Y-113209200D01*
X161747200Y-111802800D01*
X162102800Y-111802800D01*
X162102800Y-113209200D01*
X162852800Y-113209200D01*
X163445513Y-113020569D01*
X163920922Y-112619475D01*
X164201996Y-112046869D01*
X164102117Y-111802800D01*
X162102800Y-111802800D01*
X161747200Y-111802800D01*
X159747883Y-111802800D01*
X159648004Y-112046869D01*
X159929078Y-112619475D01*
X160277311Y-112913273D01*
X160054545Y-112821000D01*
X159595455Y-112821000D01*
X159171312Y-112996686D01*
X158846686Y-113321312D01*
X158671000Y-113745455D01*
X158671000Y-114204545D01*
X158783951Y-114477234D01*
X158298245Y-114962940D01*
X156677256Y-114962940D01*
X156677256Y-114744500D01*
X156657543Y-114645394D01*
X156601404Y-114561376D01*
X156517386Y-114505237D01*
X156418280Y-114485524D01*
X155993382Y-114485524D01*
X155963581Y-114413578D01*
X155799243Y-114249239D01*
X155584525Y-114160300D01*
X155477210Y-114160300D01*
X155331160Y-114306350D01*
X155331160Y-115166140D01*
X155391800Y-115166140D01*
X155391800Y-115521740D01*
X155331160Y-115521740D01*
X155331160Y-115841781D01*
X155056840Y-115841781D01*
X155056840Y-115521740D01*
X154996200Y-115521740D01*
X154996200Y-115166140D01*
X155056840Y-115166140D01*
X155056840Y-114306350D01*
X154910790Y-114160300D01*
X154803475Y-114160300D01*
X154588757Y-114249239D01*
X154424419Y-114413578D01*
X154394618Y-114485524D01*
X153969720Y-114485524D01*
X153870614Y-114505237D01*
X153786596Y-114561376D01*
X153730457Y-114645394D01*
X153710744Y-114744500D01*
X153710744Y-115943380D01*
X153730457Y-116042486D01*
X153770473Y-116102374D01*
X152855047Y-117017800D01*
X152414976Y-117017800D01*
X152414976Y-116448000D01*
X152395263Y-116348894D01*
X152339124Y-116264876D01*
X152255106Y-116208737D01*
X152156000Y-116189024D01*
X150656000Y-116189024D01*
X150556894Y-116208737D01*
X150472876Y-116264876D01*
X150416737Y-116348894D01*
X150397024Y-116448000D01*
X149140200Y-116448000D01*
X149140200Y-116331796D01*
X149051261Y-116117078D01*
X148886923Y-115952739D01*
X148672205Y-115863800D01*
X148129850Y-115863800D01*
X147983800Y-116009850D01*
X147628200Y-116009850D01*
X147482150Y-115863800D01*
X146939795Y-115863800D01*
X146725077Y-115952739D01*
X146560739Y-116117078D01*
X146471800Y-116331796D01*
X137998200Y-116331796D01*
X137998200Y-113245370D01*
X138383998Y-113085567D01*
X138739567Y-112729998D01*
X138932000Y-112265425D01*
X138932000Y-111887691D01*
X139319000Y-111887691D01*
X139319000Y-112140309D01*
X139415673Y-112373698D01*
X139594302Y-112552327D01*
X139827691Y-112649000D01*
X140080309Y-112649000D01*
X140313698Y-112552327D01*
X140492327Y-112373698D01*
X140504545Y-112344200D01*
X140754630Y-112344200D01*
X140914433Y-112729998D01*
X141270002Y-113085567D01*
X141734575Y-113278000D01*
X142237425Y-113278000D01*
X142623223Y-113118197D01*
X144015518Y-114510491D01*
X144033939Y-114538061D01*
X144143162Y-114611042D01*
X144239478Y-114630200D01*
X144239482Y-114630200D01*
X144271999Y-114636668D01*
X144304516Y-114630200D01*
X146521024Y-114630200D01*
X146521024Y-115200000D01*
X146540737Y-115299106D01*
X146596876Y-115383124D01*
X146680894Y-115439263D01*
X146780000Y-115458976D01*
X148280000Y-115458976D01*
X148379106Y-115439263D01*
X148463124Y-115383124D01*
X148519263Y-115299106D01*
X148538976Y-115200000D01*
X148538976Y-114623850D01*
X149795800Y-114623850D01*
X149795800Y-115316204D01*
X149884739Y-115530922D01*
X150049077Y-115695261D01*
X150263795Y-115784200D01*
X150806150Y-115784200D01*
X150952200Y-115638150D01*
X150952200Y-114477800D01*
X151307800Y-114477800D01*
X151307800Y-115638150D01*
X151453850Y-115784200D01*
X151996205Y-115784200D01*
X152210923Y-115695261D01*
X152375261Y-115530922D01*
X152464200Y-115316204D01*
X152464200Y-114623850D01*
X152318150Y-114477800D01*
X151307800Y-114477800D01*
X150952200Y-114477800D01*
X149941850Y-114477800D01*
X149795800Y-114623850D01*
X148538976Y-114623850D01*
X148538976Y-113400000D01*
X148519263Y-113300894D01*
X148507839Y-113283796D01*
X149795800Y-113283796D01*
X149795800Y-113976150D01*
X149941850Y-114122200D01*
X150952200Y-114122200D01*
X150952200Y-112961850D01*
X151307800Y-112961850D01*
X151307800Y-114122200D01*
X152318150Y-114122200D01*
X152464200Y-113976150D01*
X152464200Y-113283796D01*
X152375261Y-113069078D01*
X152210923Y-112904739D01*
X151996205Y-112815800D01*
X151453850Y-112815800D01*
X151307800Y-112961850D01*
X150952200Y-112961850D01*
X150806150Y-112815800D01*
X150263795Y-112815800D01*
X150049077Y-112904739D01*
X149884739Y-113069078D01*
X149795800Y-113283796D01*
X148507839Y-113283796D01*
X148463124Y-113216876D01*
X148379106Y-113160737D01*
X148280000Y-113141024D01*
X146780000Y-113141024D01*
X146680894Y-113160737D01*
X146596876Y-113216876D01*
X146540737Y-113300894D01*
X146521024Y-113400000D01*
X146521024Y-113969800D01*
X144408774Y-113969800D01*
X143090197Y-112651223D01*
X143250000Y-112265425D01*
X143250000Y-111762575D01*
X143262000Y-111762575D01*
X143262000Y-112265425D01*
X143454433Y-112729998D01*
X143810002Y-113085567D01*
X144274575Y-113278000D01*
X144777425Y-113278000D01*
X145241998Y-113085567D01*
X145597567Y-112729998D01*
X145630831Y-112649691D01*
X152527000Y-112649691D01*
X152527000Y-112902309D01*
X152623673Y-113135698D01*
X152802302Y-113314327D01*
X153035691Y-113411000D01*
X153288309Y-113411000D01*
X153521698Y-113314327D01*
X153700327Y-113135698D01*
X153703930Y-113127000D01*
X153710704Y-113127000D01*
X153710704Y-113345440D01*
X153730417Y-113444546D01*
X153786556Y-113528564D01*
X153870574Y-113584703D01*
X153969680Y-113604416D01*
X154518320Y-113604416D01*
X154617426Y-113584703D01*
X154701444Y-113528564D01*
X154757583Y-113444546D01*
X154777296Y-113345440D01*
X154777296Y-112146560D01*
X154757583Y-112047454D01*
X154701444Y-111963436D01*
X154617426Y-111907297D01*
X154518320Y-111887584D01*
X153969680Y-111887584D01*
X153870574Y-111907297D01*
X153786556Y-111963436D01*
X153730417Y-112047454D01*
X153710704Y-112146560D01*
X153710704Y-112365000D01*
X153649025Y-112365000D01*
X153521698Y-112237673D01*
X153288309Y-112141000D01*
X153035691Y-112141000D01*
X152802302Y-112237673D01*
X152623673Y-112416302D01*
X152527000Y-112649691D01*
X145630831Y-112649691D01*
X145736328Y-112395000D01*
X146868476Y-112395000D01*
X146906000Y-112402464D01*
X146943524Y-112395000D01*
X147054659Y-112372894D01*
X147180686Y-112288686D01*
X147201944Y-112256871D01*
X147772871Y-111685944D01*
X147804686Y-111664686D01*
X147888894Y-111538659D01*
X147911000Y-111427524D01*
X147917474Y-111394976D01*
X148280000Y-111394976D01*
X148379106Y-111375263D01*
X148463124Y-111319124D01*
X148519263Y-111235106D01*
X148538976Y-111136000D01*
X148538976Y-110559850D01*
X149795800Y-110559850D01*
X149795800Y-111252204D01*
X149884739Y-111466922D01*
X150049077Y-111631261D01*
X150263795Y-111720200D01*
X150806150Y-111720200D01*
X150952200Y-111574150D01*
X150952200Y-110413800D01*
X151307800Y-110413800D01*
X151307800Y-111574150D01*
X151453850Y-111720200D01*
X151996205Y-111720200D01*
X152210923Y-111631261D01*
X152375261Y-111466922D01*
X152464200Y-111252204D01*
X152464200Y-110559850D01*
X152318150Y-110413800D01*
X151307800Y-110413800D01*
X150952200Y-110413800D01*
X149941850Y-110413800D01*
X149795800Y-110559850D01*
X148538976Y-110559850D01*
X148538976Y-109336000D01*
X148519263Y-109236894D01*
X148507839Y-109219796D01*
X149795800Y-109219796D01*
X149795800Y-109912150D01*
X149941850Y-110058200D01*
X150952200Y-110058200D01*
X150952200Y-108897850D01*
X151307800Y-108897850D01*
X151307800Y-110058200D01*
X152318150Y-110058200D01*
X152464200Y-109912150D01*
X152464200Y-109219796D01*
X152375261Y-109005078D01*
X152210923Y-108840739D01*
X152180169Y-108828000D01*
X152639024Y-108828000D01*
X152639024Y-110628000D01*
X152658737Y-110727106D01*
X152714876Y-110811124D01*
X152798894Y-110867263D01*
X152898000Y-110886976D01*
X154141023Y-110886976D01*
X155610664Y-112356617D01*
X155610664Y-113347500D01*
X155630377Y-113446606D01*
X155686516Y-113530624D01*
X155770534Y-113586763D01*
X155869640Y-113606476D01*
X156418280Y-113606476D01*
X156517386Y-113586763D01*
X156601404Y-113530624D01*
X156657543Y-113446606D01*
X156677256Y-113347500D01*
X156677256Y-112148620D01*
X156657543Y-112049514D01*
X156601404Y-111965496D01*
X156517386Y-111909357D01*
X156418280Y-111889644D01*
X156077637Y-111889644D01*
X154656976Y-110468983D01*
X154656976Y-110051850D01*
X155913800Y-110051850D01*
X155913800Y-110744204D01*
X156002739Y-110958922D01*
X156167077Y-111123261D01*
X156381795Y-111212200D01*
X156924150Y-111212200D01*
X157070200Y-111066150D01*
X157070200Y-109905800D01*
X157425800Y-109905800D01*
X157425800Y-111066150D01*
X157571850Y-111212200D01*
X158114205Y-111212200D01*
X158136099Y-111203131D01*
X159648004Y-111203131D01*
X159747883Y-111447200D01*
X161747200Y-111447200D01*
X161747200Y-110040800D01*
X162102800Y-110040800D01*
X162102800Y-111447200D01*
X164102117Y-111447200D01*
X164201996Y-111203131D01*
X163920922Y-110630525D01*
X163445513Y-110229431D01*
X162852800Y-110040800D01*
X162102800Y-110040800D01*
X161747200Y-110040800D01*
X160997200Y-110040800D01*
X160404487Y-110229431D01*
X159929078Y-110630525D01*
X159648004Y-111203131D01*
X158136099Y-111203131D01*
X158328923Y-111123261D01*
X158493261Y-110958922D01*
X158582200Y-110744204D01*
X158582200Y-110051850D01*
X158436150Y-109905800D01*
X157425800Y-109905800D01*
X157070200Y-109905800D01*
X156059850Y-109905800D01*
X155913800Y-110051850D01*
X154656976Y-110051850D01*
X154656976Y-108828000D01*
X154637263Y-108728894D01*
X154625839Y-108711796D01*
X155913800Y-108711796D01*
X155913800Y-109404150D01*
X156059850Y-109550200D01*
X157070200Y-109550200D01*
X157070200Y-108389850D01*
X157425800Y-108389850D01*
X157425800Y-109550200D01*
X158436150Y-109550200D01*
X158582200Y-109404150D01*
X158582200Y-108711796D01*
X158493261Y-108497078D01*
X158328923Y-108332739D01*
X158114205Y-108243800D01*
X157571850Y-108243800D01*
X157425800Y-108389850D01*
X157070200Y-108389850D01*
X156924150Y-108243800D01*
X156381795Y-108243800D01*
X156167077Y-108332739D01*
X156002739Y-108497078D01*
X155913800Y-108711796D01*
X154625839Y-108711796D01*
X154581124Y-108644876D01*
X154497106Y-108588737D01*
X154398000Y-108569024D01*
X152898000Y-108569024D01*
X152798894Y-108588737D01*
X152714876Y-108644876D01*
X152658737Y-108728894D01*
X152639024Y-108828000D01*
X152180169Y-108828000D01*
X151996205Y-108751800D01*
X151453850Y-108751800D01*
X151307800Y-108897850D01*
X150952200Y-108897850D01*
X150806150Y-108751800D01*
X150263795Y-108751800D01*
X150049077Y-108840739D01*
X149884739Y-109005078D01*
X149795800Y-109219796D01*
X148507839Y-109219796D01*
X148463124Y-109152876D01*
X148379106Y-109096737D01*
X148280000Y-109077024D01*
X146780000Y-109077024D01*
X146680894Y-109096737D01*
X146596876Y-109152876D01*
X146540737Y-109236894D01*
X146521024Y-109336000D01*
X146521024Y-111136000D01*
X146540737Y-111235106D01*
X146596876Y-111319124D01*
X146680894Y-111375263D01*
X146780000Y-111394976D01*
X146986209Y-111394976D01*
X146748185Y-111633000D01*
X145736328Y-111633000D01*
X145597567Y-111298002D01*
X145241998Y-110942433D01*
X144777425Y-110750000D01*
X144274575Y-110750000D01*
X143810002Y-110942433D01*
X143454433Y-111298002D01*
X143262000Y-111762575D01*
X143250000Y-111762575D01*
X143057567Y-111298002D01*
X142701998Y-110942433D01*
X142237425Y-110750000D01*
X141734575Y-110750000D01*
X141270002Y-110942433D01*
X140914433Y-111298002D01*
X140754630Y-111683800D01*
X140504545Y-111683800D01*
X140492327Y-111654302D01*
X140313698Y-111475673D01*
X140080309Y-111379000D01*
X139827691Y-111379000D01*
X139594302Y-111475673D01*
X139415673Y-111654302D01*
X139319000Y-111887691D01*
X138932000Y-111887691D01*
X138932000Y-111762575D01*
X138739567Y-111298002D01*
X138383998Y-110942433D01*
X137919425Y-110750000D01*
X137416575Y-110750000D01*
X136952002Y-110942433D01*
X136596433Y-111298002D01*
X136404000Y-111762575D01*
X136404000Y-112265425D01*
X136596433Y-112729998D01*
X136952002Y-113085567D01*
X137337800Y-113245370D01*
X137337801Y-117135776D01*
X137265698Y-117063673D01*
X137032309Y-116967000D01*
X136779691Y-116967000D01*
X136546302Y-117063673D01*
X136388975Y-117221000D01*
X135838623Y-117221000D01*
X135801099Y-117213536D01*
X135750283Y-117223644D01*
X135404756Y-117223644D01*
X135404756Y-116905850D01*
X135439042Y-116854538D01*
X135458200Y-116758222D01*
X135458200Y-116758218D01*
X135464668Y-116725701D01*
X135458200Y-116693184D01*
X135458200Y-113245370D01*
X135843998Y-113085567D01*
X136199567Y-112729998D01*
X136392000Y-112265425D01*
X136392000Y-111762575D01*
X136199567Y-111298002D01*
X135843998Y-110942433D01*
X135379425Y-110750000D01*
X134876575Y-110750000D01*
X134412002Y-110942433D01*
X134056433Y-111298002D01*
X134046630Y-111321667D01*
X133999619Y-111208172D01*
X133752222Y-111101225D01*
X132839447Y-112014000D01*
X133752222Y-112926775D01*
X133999619Y-112819828D01*
X134041591Y-112694167D01*
X134056433Y-112729998D01*
X134412002Y-113085567D01*
X134797800Y-113245370D01*
X134797801Y-116233753D01*
X134746954Y-116243867D01*
X134745730Y-116244685D01*
X134744506Y-116243867D01*
X134645400Y-116224154D01*
X134345680Y-116224154D01*
X134246574Y-116243867D01*
X134245350Y-116244685D01*
X134244126Y-116243867D01*
X134145020Y-116224154D01*
X133845300Y-116224154D01*
X133746194Y-116243867D01*
X133744970Y-116244685D01*
X133743746Y-116243867D01*
X133644640Y-116224154D01*
X133344920Y-116224154D01*
X133245814Y-116243867D01*
X133244590Y-116244685D01*
X133243366Y-116243867D01*
X133144260Y-116224154D01*
X132844540Y-116224154D01*
X132745434Y-116243867D01*
X132744210Y-116244685D01*
X132742986Y-116243867D01*
X132643880Y-116224154D01*
X132344160Y-116224154D01*
X132245054Y-116243867D01*
X132243830Y-116244685D01*
X132242606Y-116243867D01*
X132143500Y-116224154D01*
X132069871Y-116224154D01*
X132110327Y-116183698D01*
X132207000Y-115950309D01*
X132207000Y-115697691D01*
X132110327Y-115464302D01*
X131931698Y-115285673D01*
X131698309Y-115189000D01*
X131445691Y-115189000D01*
X131212302Y-115285673D01*
X131033673Y-115464302D01*
X130937000Y-115697691D01*
X130937000Y-115898930D01*
X130815078Y-115898930D01*
X130815078Y-115942108D01*
X130771900Y-115898930D01*
X130726815Y-115898930D01*
X130599180Y-115951798D01*
X130599180Y-115015704D01*
X130606644Y-114978180D01*
X130577074Y-114829521D01*
X130514121Y-114735305D01*
X130492866Y-114703494D01*
X130461055Y-114682239D01*
X128651000Y-112872185D01*
X128651000Y-112649691D01*
X128554327Y-112416302D01*
X128375698Y-112237673D01*
X128142309Y-112141000D01*
X127889691Y-112141000D01*
X127656302Y-112237673D01*
X127477673Y-112416302D01*
X127381000Y-112649691D01*
X127381000Y-112902309D01*
X127477673Y-113135698D01*
X127656302Y-113314327D01*
X127889691Y-113411000D01*
X128112185Y-113411000D01*
X129837180Y-115135996D01*
X129837181Y-117224907D01*
X129744424Y-117243357D01*
X129660406Y-117299496D01*
X129604267Y-117383514D01*
X129584554Y-117482620D01*
X129584554Y-117559310D01*
X127362421Y-115337178D01*
X127343998Y-115309606D01*
X127234775Y-115236625D01*
X127138459Y-115217467D01*
X127113661Y-115212534D01*
X127164485Y-115089833D01*
X127164485Y-114598978D01*
X127018435Y-114452928D01*
X126161185Y-114452928D01*
X126161185Y-114472928D01*
X125805585Y-114472928D01*
X125805585Y-114452928D01*
X125785585Y-114452928D01*
X125785585Y-114097328D01*
X125805585Y-114097328D01*
X125805585Y-113138478D01*
X126161185Y-113138478D01*
X126161185Y-114097328D01*
X127018435Y-114097328D01*
X127164485Y-113951278D01*
X127164485Y-113460423D01*
X127075546Y-113245705D01*
X126911207Y-113081367D01*
X126696489Y-112992428D01*
X126307235Y-112992428D01*
X126161185Y-113138478D01*
X125805585Y-113138478D01*
X125659535Y-112992428D01*
X125270281Y-112992428D01*
X125055563Y-113081367D01*
X124891224Y-113245705D01*
X124861423Y-113317652D01*
X123794354Y-113317652D01*
X123782518Y-113299939D01*
X123673295Y-113226958D01*
X123593379Y-113211062D01*
X123544457Y-113201331D01*
X123511935Y-113207800D01*
X121680976Y-113207800D01*
X121680976Y-112673001D01*
X121814302Y-112806327D01*
X122047691Y-112903000D01*
X122300309Y-112903000D01*
X122533698Y-112806327D01*
X122712327Y-112627698D01*
X122809000Y-112394309D01*
X122809000Y-112268001D01*
X124053475Y-112268001D01*
X124090999Y-112275465D01*
X124128523Y-112268001D01*
X124239658Y-112245895D01*
X124365685Y-112161687D01*
X124386943Y-112129872D01*
X125737024Y-110779792D01*
X125737024Y-111136000D01*
X125756737Y-111235106D01*
X125812876Y-111319124D01*
X125896894Y-111375263D01*
X125996000Y-111394976D01*
X127496000Y-111394976D01*
X127595106Y-111375263D01*
X127679124Y-111319124D01*
X127735263Y-111235106D01*
X127754976Y-111136000D01*
X127754976Y-110617000D01*
X128112185Y-110617000D01*
X128922761Y-111427577D01*
X128784000Y-111762575D01*
X128784000Y-112265425D01*
X128976433Y-112729998D01*
X129332002Y-113085567D01*
X129796575Y-113278000D01*
X130299425Y-113278000D01*
X130540309Y-113178222D01*
X131675225Y-113178222D01*
X131782172Y-113425619D01*
X132383715Y-113626543D01*
X133016359Y-113581972D01*
X133393828Y-113425619D01*
X133500775Y-113178222D01*
X132588000Y-112265447D01*
X131675225Y-113178222D01*
X130540309Y-113178222D01*
X130763998Y-113085567D01*
X131119567Y-112729998D01*
X131129370Y-112706333D01*
X131176381Y-112819828D01*
X131423778Y-112926775D01*
X132336553Y-112014000D01*
X131423778Y-111101225D01*
X131176381Y-111208172D01*
X131134409Y-111333833D01*
X131119567Y-111298002D01*
X130763998Y-110942433D01*
X130540310Y-110849778D01*
X131675225Y-110849778D01*
X132588000Y-111762553D01*
X133500775Y-110849778D01*
X133393828Y-110602381D01*
X132792285Y-110401457D01*
X132159641Y-110446028D01*
X131782172Y-110602381D01*
X131675225Y-110849778D01*
X130540310Y-110849778D01*
X130299425Y-110750000D01*
X129796575Y-110750000D01*
X129461577Y-110888761D01*
X128565944Y-109993129D01*
X128544686Y-109961314D01*
X128418659Y-109877106D01*
X128307524Y-109855000D01*
X128270000Y-109847536D01*
X128232476Y-109855000D01*
X127754976Y-109855000D01*
X127754976Y-109336000D01*
X127735263Y-109236894D01*
X127679124Y-109152876D01*
X127595106Y-109096737D01*
X127496000Y-109077024D01*
X125996000Y-109077024D01*
X125896894Y-109096737D01*
X125812876Y-109152876D01*
X125756737Y-109236894D01*
X125737024Y-109336000D01*
X125737024Y-109848526D01*
X125593341Y-109877106D01*
X125467314Y-109961314D01*
X125446058Y-109993126D01*
X124480200Y-110958985D01*
X124480200Y-110559850D01*
X124334150Y-110413800D01*
X123323800Y-110413800D01*
X123323800Y-110433800D01*
X122968200Y-110433800D01*
X122968200Y-110413800D01*
X121957850Y-110413800D01*
X121811800Y-110559850D01*
X121811800Y-111252204D01*
X121900739Y-111466922D01*
X122065077Y-111631261D01*
X122069275Y-111633000D01*
X122047691Y-111633000D01*
X121814302Y-111729673D01*
X121635673Y-111908302D01*
X121539000Y-112141691D01*
X121539000Y-112394309D01*
X121548384Y-112416963D01*
X121521106Y-112398737D01*
X121422000Y-112379024D01*
X119922000Y-112379024D01*
X119822894Y-112398737D01*
X119738876Y-112454876D01*
X119682737Y-112538894D01*
X119663024Y-112638000D01*
X119663024Y-114438000D01*
X119682737Y-114537106D01*
X119738876Y-114621124D01*
X119822894Y-114677263D01*
X119922000Y-114696976D01*
X121422000Y-114696976D01*
X121521106Y-114677263D01*
X121605124Y-114621124D01*
X121661263Y-114537106D01*
X121680976Y-114438000D01*
X121680976Y-113868200D01*
X123407684Y-113868200D01*
X123425709Y-113886225D01*
X123425709Y-114973628D01*
X123445422Y-115072734D01*
X123501561Y-115156752D01*
X123559798Y-115195665D01*
X123353763Y-115281007D01*
X123189424Y-115445345D01*
X123100485Y-115660063D01*
X123100485Y-116150918D01*
X123246535Y-116296968D01*
X124103785Y-116296968D01*
X124103785Y-116276968D01*
X124459385Y-116276968D01*
X124459385Y-116296968D01*
X124479385Y-116296968D01*
X124479385Y-116652568D01*
X124459385Y-116652568D01*
X124459385Y-117071669D01*
X124103785Y-117071669D01*
X124103785Y-116652568D01*
X123246535Y-116652568D01*
X123233006Y-116666097D01*
X122942419Y-116375511D01*
X122923996Y-116347939D01*
X122814773Y-116274958D01*
X122718457Y-116255800D01*
X122685935Y-116249331D01*
X122653413Y-116255800D01*
X121680976Y-116255800D01*
X121680976Y-115686000D01*
X121661263Y-115586894D01*
X121605124Y-115502876D01*
X121521106Y-115446737D01*
X121422000Y-115427024D01*
X119922000Y-115427024D01*
X119822894Y-115446737D01*
X119738876Y-115502876D01*
X119682737Y-115586894D01*
X119663024Y-115686000D01*
X119663024Y-117486000D01*
X119682737Y-117585106D01*
X119738876Y-117669124D01*
X119822894Y-117725263D01*
X119922000Y-117744976D01*
X121422000Y-117744976D01*
X121521106Y-117725263D01*
X121605124Y-117669124D01*
X121661263Y-117585106D01*
X121680976Y-117486000D01*
X121680976Y-116916200D01*
X122549162Y-116916200D01*
X123245321Y-117612360D01*
X123263743Y-117639930D01*
X123291312Y-117658351D01*
X123291313Y-117658352D01*
X123372966Y-117712911D01*
X123501803Y-117738538D01*
X123515975Y-117735719D01*
X123568481Y-117757468D01*
X123957735Y-117757468D01*
X123983134Y-117732069D01*
X124580036Y-117732069D01*
X124605435Y-117757468D01*
X124994689Y-117757468D01*
X125056008Y-117732069D01*
X125125362Y-117732069D01*
X125157884Y-117738538D01*
X125190406Y-117732069D01*
X125286722Y-117712911D01*
X125395945Y-117639930D01*
X125414368Y-117612358D01*
X125594482Y-117432244D01*
X126580285Y-117432244D01*
X126679391Y-117412531D01*
X126763409Y-117356392D01*
X126819548Y-117272374D01*
X126839261Y-117173268D01*
X126839261Y-117048317D01*
X128594364Y-118803420D01*
X126926793Y-118803420D01*
X126784884Y-118661511D01*
X126766461Y-118633939D01*
X126657238Y-118560958D01*
X126634976Y-118556530D01*
X126634976Y-118122000D01*
X126615263Y-118022894D01*
X126559124Y-117938876D01*
X126475106Y-117882737D01*
X126376000Y-117863024D01*
X124576000Y-117863024D01*
X124476894Y-117882737D01*
X124392876Y-117938876D01*
X124336737Y-118022894D01*
X124317024Y-118122000D01*
X124317024Y-119622000D01*
X124336737Y-119721106D01*
X124392876Y-119805124D01*
X124476894Y-119861263D01*
X124576000Y-119880976D01*
X126376000Y-119880976D01*
X126475106Y-119861263D01*
X126559124Y-119805124D01*
X126615263Y-119721106D01*
X126634976Y-119622000D01*
X126634976Y-119427151D01*
X126661182Y-119444662D01*
X126790020Y-119470289D01*
X126822542Y-119463820D01*
X129310130Y-119463820D01*
X129405380Y-119559070D01*
X130040380Y-119559070D01*
X130040380Y-119542456D01*
X130395980Y-119542456D01*
X130395980Y-119559070D01*
X130415980Y-119559070D01*
X130415980Y-119708930D01*
X130395980Y-119708930D01*
X130395980Y-119725544D01*
X130040380Y-119725544D01*
X130040380Y-119708930D01*
X129405380Y-119708930D01*
X129259330Y-119854980D01*
X129259330Y-119881955D01*
X129252948Y-119891506D01*
X126953726Y-122190729D01*
X126921914Y-122211985D01*
X126900658Y-122243797D01*
X126866981Y-122294198D01*
X126814152Y-122294198D01*
X126960200Y-122148150D01*
X126960200Y-121605795D01*
X126871261Y-121391077D01*
X126706922Y-121226739D01*
X126492204Y-121137800D01*
X125799850Y-121137800D01*
X125653800Y-121283850D01*
X125653800Y-122294200D01*
X125673800Y-122294200D01*
X125673800Y-122649800D01*
X125653800Y-122649800D01*
X125653800Y-122669800D01*
X125298200Y-122669800D01*
X125298200Y-122649800D01*
X124137850Y-122649800D01*
X123991800Y-122795850D01*
X123991800Y-122850985D01*
X123623944Y-122483129D01*
X123602686Y-122451314D01*
X123476659Y-122367106D01*
X123365524Y-122345000D01*
X123332976Y-122338526D01*
X123332976Y-121976000D01*
X123313263Y-121876894D01*
X123257124Y-121792876D01*
X123173106Y-121736737D01*
X123074000Y-121717024D01*
X121274000Y-121717024D01*
X121174894Y-121736737D01*
X121090876Y-121792876D01*
X121034737Y-121876894D01*
X121015024Y-121976000D01*
X121015024Y-123476000D01*
X121034737Y-123575106D01*
X121090876Y-123659124D01*
X121174894Y-123715263D01*
X121274000Y-123734976D01*
X121793001Y-123734976D01*
X121793000Y-124704975D01*
X121635673Y-124862302D01*
X121539000Y-125095691D01*
X121539000Y-125348309D01*
X121602413Y-125501401D01*
X119455974Y-125501401D01*
X117667549Y-123712976D01*
X117994000Y-123712976D01*
X118093106Y-123693263D01*
X118177124Y-123637124D01*
X118233263Y-123553106D01*
X118252976Y-123454000D01*
X118252976Y-121954000D01*
X118233263Y-121854894D01*
X118177124Y-121770876D01*
X118093106Y-121714737D01*
X117994000Y-121695024D01*
X116194000Y-121695024D01*
X116094894Y-121714737D01*
X116010876Y-121770876D01*
X115954737Y-121854894D01*
X115935024Y-121954000D01*
X114566700Y-121954000D01*
X114566700Y-121605795D01*
X123991800Y-121605795D01*
X123991800Y-122148150D01*
X124137850Y-122294200D01*
X125298200Y-122294200D01*
X125298200Y-121283850D01*
X125152150Y-121137800D01*
X124459796Y-121137800D01*
X124245078Y-121226739D01*
X124080739Y-121391077D01*
X123991800Y-121605795D01*
X114566700Y-121605795D01*
X114566700Y-119427850D01*
X115609800Y-119427850D01*
X115609800Y-119970205D01*
X115698739Y-120184923D01*
X115863078Y-120349261D01*
X116077796Y-120438200D01*
X116770150Y-120438200D01*
X116916200Y-120292150D01*
X116916200Y-119281800D01*
X117271800Y-119281800D01*
X117271800Y-120292150D01*
X117417850Y-120438200D01*
X118110204Y-120438200D01*
X118324922Y-120349261D01*
X118489261Y-120184923D01*
X118578200Y-119970205D01*
X118578200Y-119449850D01*
X120689800Y-119449850D01*
X120689800Y-119992205D01*
X120778739Y-120206923D01*
X120943078Y-120371261D01*
X121157796Y-120460200D01*
X121850150Y-120460200D01*
X121996200Y-120314150D01*
X121996200Y-119303800D01*
X122351800Y-119303800D01*
X122351800Y-120314150D01*
X122497850Y-120460200D01*
X123190204Y-120460200D01*
X123404922Y-120371261D01*
X123569261Y-120206923D01*
X123658200Y-119992205D01*
X123658200Y-119449850D01*
X123512150Y-119303800D01*
X122351800Y-119303800D01*
X121996200Y-119303800D01*
X120835850Y-119303800D01*
X120689800Y-119449850D01*
X118578200Y-119449850D01*
X118578200Y-119427850D01*
X118432150Y-119281800D01*
X117271800Y-119281800D01*
X116916200Y-119281800D01*
X115755850Y-119281800D01*
X115609800Y-119427850D01*
X114566700Y-119427850D01*
X114566700Y-118237795D01*
X115609800Y-118237795D01*
X115609800Y-118780150D01*
X115755850Y-118926200D01*
X116916200Y-118926200D01*
X116916200Y-117915850D01*
X116894200Y-117893850D01*
X116894200Y-116763800D01*
X117249800Y-116763800D01*
X117249800Y-117924150D01*
X117271800Y-117946150D01*
X117271800Y-118926200D01*
X118432150Y-118926200D01*
X118578200Y-118780150D01*
X118578200Y-118259795D01*
X120689800Y-118259795D01*
X120689800Y-118802150D01*
X120835850Y-118948200D01*
X121996200Y-118948200D01*
X121996200Y-117937850D01*
X122351800Y-117937850D01*
X122351800Y-118948200D01*
X123512150Y-118948200D01*
X123658200Y-118802150D01*
X123658200Y-118259795D01*
X123569261Y-118045077D01*
X123404922Y-117880739D01*
X123190204Y-117791800D01*
X122497850Y-117791800D01*
X122351800Y-117937850D01*
X121996200Y-117937850D01*
X121850150Y-117791800D01*
X121157796Y-117791800D01*
X120943078Y-117880739D01*
X120778739Y-118045077D01*
X120689800Y-118259795D01*
X118578200Y-118259795D01*
X118578200Y-118237795D01*
X118489261Y-118023077D01*
X118324922Y-117858739D01*
X118289936Y-117844247D01*
X118317261Y-117816922D01*
X118406200Y-117602204D01*
X118406200Y-116909850D01*
X118260150Y-116763800D01*
X117249800Y-116763800D01*
X116894200Y-116763800D01*
X115883850Y-116763800D01*
X115737800Y-116909850D01*
X115737800Y-117602204D01*
X115826739Y-117816922D01*
X115866951Y-117857135D01*
X115863078Y-117858739D01*
X115698739Y-118023077D01*
X115609800Y-118237795D01*
X114566700Y-118237795D01*
X114566700Y-115569796D01*
X115737800Y-115569796D01*
X115737800Y-116262150D01*
X115883850Y-116408200D01*
X116894200Y-116408200D01*
X116894200Y-115247850D01*
X117249800Y-115247850D01*
X117249800Y-116408200D01*
X118260150Y-116408200D01*
X118406200Y-116262150D01*
X118406200Y-115569796D01*
X118317261Y-115355078D01*
X118152923Y-115190739D01*
X117938205Y-115101800D01*
X117395850Y-115101800D01*
X117249800Y-115247850D01*
X116894200Y-115247850D01*
X116748150Y-115101800D01*
X116205795Y-115101800D01*
X115991077Y-115190739D01*
X115826739Y-115355078D01*
X115737800Y-115569796D01*
X114566700Y-115569796D01*
X114566700Y-113861850D01*
X115737800Y-113861850D01*
X115737800Y-114554204D01*
X115826739Y-114768922D01*
X115991077Y-114933261D01*
X116205795Y-115022200D01*
X116748150Y-115022200D01*
X116894200Y-114876150D01*
X116894200Y-113715800D01*
X117249800Y-113715800D01*
X117249800Y-114876150D01*
X117395850Y-115022200D01*
X117938205Y-115022200D01*
X118152923Y-114933261D01*
X118317261Y-114768922D01*
X118406200Y-114554204D01*
X118406200Y-113861850D01*
X118260150Y-113715800D01*
X117249800Y-113715800D01*
X116894200Y-113715800D01*
X115883850Y-113715800D01*
X115737800Y-113861850D01*
X114566700Y-113861850D01*
X114566700Y-112521796D01*
X115737800Y-112521796D01*
X115737800Y-113214150D01*
X115883850Y-113360200D01*
X116894200Y-113360200D01*
X116894200Y-112199850D01*
X117249800Y-112199850D01*
X117249800Y-113360200D01*
X118260150Y-113360200D01*
X118406200Y-113214150D01*
X118406200Y-112521796D01*
X118317261Y-112307078D01*
X118152923Y-112142739D01*
X117938205Y-112053800D01*
X117395850Y-112053800D01*
X117249800Y-112199850D01*
X116894200Y-112199850D01*
X116748150Y-112053800D01*
X116205795Y-112053800D01*
X115991077Y-112142739D01*
X115826739Y-112307078D01*
X115737800Y-112521796D01*
X114566700Y-112521796D01*
X114566700Y-109219796D01*
X121811800Y-109219796D01*
X121811800Y-109912150D01*
X121957850Y-110058200D01*
X122968200Y-110058200D01*
X122968200Y-108897850D01*
X123323800Y-108897850D01*
X123323800Y-110058200D01*
X124334150Y-110058200D01*
X124480200Y-109912150D01*
X124480200Y-109219796D01*
X124391261Y-109005078D01*
X124226923Y-108840739D01*
X124012205Y-108751800D01*
X123469850Y-108751800D01*
X123323800Y-108897850D01*
X122968200Y-108897850D01*
X122822150Y-108751800D01*
X122279795Y-108751800D01*
X122065077Y-108840739D01*
X121900739Y-109005078D01*
X121811800Y-109219796D01*
X114566700Y-109219796D01*
X114566700Y-108216700D01*
X164833300Y-108216700D01*
X164833301Y-126733300D01*
X164833301Y-126733300D01*
G37*
X164833301Y-126733300D02*
X114566700Y-126733300D01*
X114566700Y-121954000D01*
X115935024Y-121954000D01*
X115935024Y-123454000D01*
X115954737Y-123553106D01*
X116010876Y-123637124D01*
X116094894Y-123693263D01*
X116194000Y-123712976D01*
X116778530Y-123712976D01*
X116782958Y-123735237D01*
X116837517Y-123816890D01*
X116837519Y-123816892D01*
X116855940Y-123844461D01*
X116883509Y-123862882D01*
X119062717Y-126042090D01*
X119081140Y-126069662D01*
X119190363Y-126142643D01*
X119286679Y-126161801D01*
X119286683Y-126161801D01*
X119319200Y-126168269D01*
X119351717Y-126161801D01*
X123147477Y-126161801D01*
X123179999Y-126168270D01*
X123212521Y-126161801D01*
X123308837Y-126142643D01*
X123418060Y-126069662D01*
X123436483Y-126042090D01*
X123683024Y-125795549D01*
X123683024Y-126122000D01*
X123702737Y-126221106D01*
X123758876Y-126305124D01*
X123842894Y-126361263D01*
X123942000Y-126380976D01*
X125442000Y-126380976D01*
X125541106Y-126361263D01*
X125625124Y-126305124D01*
X125681263Y-126221106D01*
X125700976Y-126122000D01*
X125700976Y-124322000D01*
X125681263Y-124222894D01*
X125625124Y-124138876D01*
X125541106Y-124082737D01*
X125442000Y-124063024D01*
X123942000Y-124063024D01*
X123842894Y-124082737D01*
X123758876Y-124138876D01*
X123702737Y-124222894D01*
X123683024Y-124322000D01*
X123683024Y-124906530D01*
X123660762Y-124910958D01*
X123612566Y-124943162D01*
X123551539Y-124983939D01*
X123533117Y-125011509D01*
X123043226Y-125501401D01*
X122745587Y-125501401D01*
X122809000Y-125348309D01*
X122809000Y-125095691D01*
X122712327Y-124862302D01*
X122555000Y-124704975D01*
X122555000Y-123734976D01*
X123074000Y-123734976D01*
X123173106Y-123715263D01*
X123257124Y-123659124D01*
X123313263Y-123575106D01*
X123332976Y-123476000D01*
X123332976Y-123269791D01*
X123807457Y-123744272D01*
X123828715Y-123776087D01*
X123931045Y-123844461D01*
X123954742Y-123860295D01*
X124103401Y-123889865D01*
X124140925Y-123882401D01*
X127159075Y-123882401D01*
X127196599Y-123889865D01*
X127234123Y-123882401D01*
X127345258Y-123860295D01*
X127471285Y-123776087D01*
X127555493Y-123650060D01*
X127585063Y-123501401D01*
X127577599Y-123463877D01*
X127577599Y-122644486D01*
X129584554Y-120637532D01*
X129584554Y-120784620D01*
X129604267Y-120883726D01*
X129605085Y-120884950D01*
X129604267Y-120886174D01*
X129584554Y-120985280D01*
X129584554Y-121285000D01*
X129604267Y-121384106D01*
X129605085Y-121385330D01*
X129604267Y-121386554D01*
X129584554Y-121485660D01*
X129584554Y-121785380D01*
X129604267Y-121884486D01*
X129660406Y-121968504D01*
X129744424Y-122024643D01*
X129843530Y-122044356D01*
X130584044Y-122044356D01*
X130584044Y-122683271D01*
X130383051Y-122683271D01*
X130350529Y-122676802D01*
X130318007Y-122683271D01*
X130221691Y-122702429D01*
X130112468Y-122775410D01*
X130094046Y-122802981D01*
X128834003Y-124063024D01*
X127542000Y-124063024D01*
X127442894Y-124082737D01*
X127358876Y-124138876D01*
X127302737Y-124222894D01*
X127283024Y-124322000D01*
X127283024Y-126122000D01*
X127302737Y-126221106D01*
X127358876Y-126305124D01*
X127442894Y-126361263D01*
X127542000Y-126380976D01*
X129042000Y-126380976D01*
X129141106Y-126361263D01*
X129225124Y-126305124D01*
X129281263Y-126221106D01*
X129300976Y-126122000D01*
X129300976Y-124529997D01*
X130487302Y-123343671D01*
X133386057Y-123343671D01*
X133418579Y-123350140D01*
X133451101Y-123343671D01*
X133547417Y-123324513D01*
X133656640Y-123251532D01*
X133675064Y-123223958D01*
X133705269Y-123193754D01*
X133732840Y-123175331D01*
X133805822Y-123066108D01*
X133811584Y-123037140D01*
X133845300Y-123043846D01*
X133921990Y-123043846D01*
X132304976Y-124660861D01*
X132304976Y-124322000D01*
X132285263Y-124222894D01*
X132229124Y-124138876D01*
X132145106Y-124082737D01*
X132046000Y-124063024D01*
X130546000Y-124063024D01*
X130446894Y-124082737D01*
X130362876Y-124138876D01*
X130306737Y-124222894D01*
X130287024Y-124322000D01*
X130287024Y-126122000D01*
X130306737Y-126221106D01*
X130362876Y-126305124D01*
X130446894Y-126361263D01*
X130546000Y-126380976D01*
X132046000Y-126380976D01*
X132145106Y-126361263D01*
X132229124Y-126305124D01*
X132285263Y-126221106D01*
X132304976Y-126122000D01*
X132304976Y-125545850D01*
X133561800Y-125545850D01*
X133561800Y-126238204D01*
X133650739Y-126452922D01*
X133815077Y-126617261D01*
X134029795Y-126706200D01*
X134572150Y-126706200D01*
X134718200Y-126560150D01*
X134718200Y-125399800D01*
X133707850Y-125399800D01*
X133561800Y-125545850D01*
X132304976Y-125545850D01*
X132304976Y-125539939D01*
X132339648Y-125533042D01*
X132448871Y-125460061D01*
X132467294Y-125432489D01*
X133561800Y-124337983D01*
X133561800Y-124898150D01*
X133707850Y-125044200D01*
X134718200Y-125044200D01*
X134718200Y-123883850D01*
X134572150Y-123737800D01*
X134161984Y-123737800D01*
X134589041Y-123310743D01*
X134729856Y-123369070D01*
X134774940Y-123369070D01*
X134920990Y-123223020D01*
X134920990Y-122588020D01*
X135070850Y-122588020D01*
X135070850Y-123223020D01*
X135216900Y-123369070D01*
X135261984Y-123369070D01*
X135476702Y-123280131D01*
X135641041Y-123115793D01*
X135729980Y-122901075D01*
X135729980Y-122734070D01*
X135583930Y-122588020D01*
X135070850Y-122588020D01*
X134920990Y-122588020D01*
X134904376Y-122588020D01*
X134904376Y-122232420D01*
X134920990Y-122232420D01*
X134920990Y-122212420D01*
X135070850Y-122212420D01*
X135070850Y-122232420D01*
X135583930Y-122232420D01*
X135729980Y-122086370D01*
X135729980Y-122044356D01*
X135865431Y-122044356D01*
X137519001Y-123697927D01*
X137519001Y-124063024D01*
X137150000Y-124063024D01*
X137050894Y-124082737D01*
X136966876Y-124138876D01*
X136910737Y-124222894D01*
X136891024Y-124322000D01*
X136891024Y-124816999D01*
X136757698Y-124683673D01*
X136524309Y-124587000D01*
X136271691Y-124587000D01*
X136230200Y-124604186D01*
X136230200Y-124205796D01*
X136141261Y-123991078D01*
X135976923Y-123826739D01*
X135762205Y-123737800D01*
X135219850Y-123737800D01*
X135073800Y-123883850D01*
X135073800Y-125044200D01*
X135093800Y-125044200D01*
X135093800Y-125399800D01*
X135073800Y-125399800D01*
X135073800Y-126560150D01*
X135219850Y-126706200D01*
X135762205Y-126706200D01*
X135976923Y-126617261D01*
X136141261Y-126452922D01*
X136230200Y-126238204D01*
X136230200Y-125839814D01*
X136271691Y-125857000D01*
X136524309Y-125857000D01*
X136757698Y-125760327D01*
X136891024Y-125627001D01*
X136891024Y-126122000D01*
X136910737Y-126221106D01*
X136966876Y-126305124D01*
X137050894Y-126361263D01*
X137150000Y-126380976D01*
X138650000Y-126380976D01*
X138749106Y-126361263D01*
X138833124Y-126305124D01*
X138889263Y-126221106D01*
X138908976Y-126122000D01*
X138908976Y-125545850D01*
X140165800Y-125545850D01*
X140165800Y-126238204D01*
X140254739Y-126452922D01*
X140419077Y-126617261D01*
X140633795Y-126706200D01*
X141176150Y-126706200D01*
X141322200Y-126560150D01*
X141322200Y-125399800D01*
X141677800Y-125399800D01*
X141677800Y-126560150D01*
X141823850Y-126706200D01*
X142366205Y-126706200D01*
X142580923Y-126617261D01*
X142745261Y-126452922D01*
X142834200Y-126238204D01*
X142834200Y-125545850D01*
X142688150Y-125399800D01*
X141677800Y-125399800D01*
X141322200Y-125399800D01*
X140311850Y-125399800D01*
X140165800Y-125545850D01*
X138908976Y-125545850D01*
X138908976Y-124322000D01*
X138889263Y-124222894D01*
X138877839Y-124205796D01*
X140165800Y-124205796D01*
X140165800Y-124898150D01*
X140311850Y-125044200D01*
X141322200Y-125044200D01*
X141322200Y-123883850D01*
X141677800Y-123883850D01*
X141677800Y-125044200D01*
X142688150Y-125044200D01*
X142834200Y-124898150D01*
X142834200Y-124783850D01*
X151805800Y-124783850D01*
X151805800Y-125476204D01*
X151894739Y-125690922D01*
X152059077Y-125855261D01*
X152273795Y-125944200D01*
X152816150Y-125944200D01*
X152962200Y-125798150D01*
X152962200Y-124637800D01*
X153317800Y-124637800D01*
X153317800Y-125798150D01*
X153463850Y-125944200D01*
X154006205Y-125944200D01*
X154220923Y-125855261D01*
X154385261Y-125690922D01*
X154474200Y-125476204D01*
X154474200Y-124783850D01*
X154328150Y-124637800D01*
X153317800Y-124637800D01*
X152962200Y-124637800D01*
X151951850Y-124637800D01*
X151805800Y-124783850D01*
X142834200Y-124783850D01*
X142834200Y-124205796D01*
X142745261Y-123991078D01*
X142580923Y-123826739D01*
X142366205Y-123737800D01*
X141823850Y-123737800D01*
X141677800Y-123883850D01*
X141322200Y-123883850D01*
X141176150Y-123737800D01*
X140633795Y-123737800D01*
X140419077Y-123826739D01*
X140254739Y-123991078D01*
X140165800Y-124205796D01*
X138877839Y-124205796D01*
X138833124Y-124138876D01*
X138749106Y-124082737D01*
X138650000Y-124063024D01*
X138281000Y-124063024D01*
X138281000Y-123577633D01*
X138288464Y-123540109D01*
X138269307Y-123443796D01*
X151805800Y-123443796D01*
X151805800Y-124136150D01*
X151951850Y-124282200D01*
X152962200Y-124282200D01*
X152962200Y-123121850D01*
X153317800Y-123121850D01*
X153317800Y-124282200D01*
X154328150Y-124282200D01*
X154474200Y-124136150D01*
X154474200Y-123560000D01*
X155731024Y-123560000D01*
X155731024Y-125360000D01*
X155750737Y-125459106D01*
X155806876Y-125543124D01*
X155890894Y-125599263D01*
X155990000Y-125618976D01*
X157490000Y-125618976D01*
X157589106Y-125599263D01*
X157673124Y-125543124D01*
X157729263Y-125459106D01*
X157748976Y-125360000D01*
X157748976Y-123746869D01*
X159648004Y-123746869D01*
X159929078Y-124319475D01*
X160404487Y-124720569D01*
X160997200Y-124909200D01*
X161747200Y-124909200D01*
X161747200Y-123502800D01*
X162102800Y-123502800D01*
X162102800Y-124909200D01*
X162852800Y-124909200D01*
X163445513Y-124720569D01*
X163920922Y-124319475D01*
X164201996Y-123746869D01*
X164102117Y-123502800D01*
X162102800Y-123502800D01*
X161747200Y-123502800D01*
X159747883Y-123502800D01*
X159648004Y-123746869D01*
X157748976Y-123746869D01*
X157748976Y-123560000D01*
X157729263Y-123460894D01*
X157673124Y-123376876D01*
X157589106Y-123320737D01*
X157490000Y-123301024D01*
X157099000Y-123301024D01*
X157099000Y-122945025D01*
X157256327Y-122787698D01*
X157353000Y-122554309D01*
X157353000Y-122301691D01*
X157256327Y-122068302D01*
X157077698Y-121889673D01*
X156844309Y-121793000D01*
X156591691Y-121793000D01*
X156358302Y-121889673D01*
X156179673Y-122068302D01*
X156083000Y-122301691D01*
X156083000Y-122554309D01*
X156179673Y-122787698D01*
X156337000Y-122945025D01*
X156337000Y-123301024D01*
X155990000Y-123301024D01*
X155890894Y-123320737D01*
X155806876Y-123376876D01*
X155750737Y-123460894D01*
X155731024Y-123560000D01*
X154474200Y-123560000D01*
X154474200Y-123443796D01*
X154385261Y-123229078D01*
X154220923Y-123064739D01*
X154006205Y-122975800D01*
X153463850Y-122975800D01*
X153317800Y-123121850D01*
X152962200Y-123121850D01*
X152816150Y-122975800D01*
X152273795Y-122975800D01*
X152059077Y-123064739D01*
X151894739Y-123229078D01*
X151805800Y-123443796D01*
X138269307Y-123443796D01*
X138258894Y-123391451D01*
X138231142Y-123349917D01*
X138174686Y-123265424D01*
X138142874Y-123244168D01*
X136404246Y-121505541D01*
X136404246Y-121485660D01*
X136384533Y-121386554D01*
X136383715Y-121385330D01*
X136384533Y-121384106D01*
X136404246Y-121285000D01*
X136404246Y-120985280D01*
X136384533Y-120886174D01*
X136383715Y-120884950D01*
X136384533Y-120883726D01*
X136404246Y-120784620D01*
X136404246Y-120484900D01*
X136384533Y-120385794D01*
X136383715Y-120384570D01*
X136384533Y-120383346D01*
X136404246Y-120284240D01*
X136404246Y-119984520D01*
X136400204Y-119964200D01*
X151976205Y-119964200D01*
X153226874Y-121214870D01*
X153226874Y-121245630D01*
X153246587Y-121344736D01*
X153302726Y-121428754D01*
X153386744Y-121484893D01*
X153485850Y-121504606D01*
X153986230Y-121504606D01*
X154085336Y-121484893D01*
X154169354Y-121428754D01*
X154225493Y-121344736D01*
X154245206Y-121245630D01*
X154245206Y-121120452D01*
X154317152Y-121090651D01*
X154481491Y-120926313D01*
X154570430Y-120711595D01*
X154570430Y-120641745D01*
X154424380Y-120495695D01*
X153861135Y-120495695D01*
X153861135Y-120587874D01*
X153610945Y-120587874D01*
X153610945Y-120495695D01*
X153538240Y-120495695D01*
X153538240Y-120296305D01*
X153610945Y-120296305D01*
X153610945Y-120204126D01*
X153861135Y-120204126D01*
X153861135Y-120296305D01*
X154424380Y-120296305D01*
X154570430Y-120150255D01*
X154570430Y-120080405D01*
X154481491Y-119865687D01*
X154317152Y-119701349D01*
X154245206Y-119671548D01*
X154245206Y-119546370D01*
X154225493Y-119447264D01*
X154169354Y-119363246D01*
X154085336Y-119307107D01*
X154054199Y-119300914D01*
X154047082Y-119265132D01*
X153992523Y-119183480D01*
X153992522Y-119183479D01*
X153974100Y-119155909D01*
X153946531Y-119137488D01*
X153732173Y-118923130D01*
X153713751Y-118895559D01*
X153604528Y-118822578D01*
X153508212Y-118803420D01*
X153475690Y-118796951D01*
X153443168Y-118803420D01*
X148741686Y-118803420D01*
X148886923Y-118743261D01*
X149051261Y-118578922D01*
X149140200Y-118364204D01*
X149140200Y-117671850D01*
X148994150Y-117525800D01*
X147983800Y-117525800D01*
X147983800Y-117545800D01*
X147628200Y-117545800D01*
X147628200Y-117525800D01*
X146617850Y-117525800D01*
X146471800Y-117671850D01*
X146471800Y-118364204D01*
X146560739Y-118578922D01*
X146725077Y-118743261D01*
X146870314Y-118803420D01*
X137073763Y-118803420D01*
X137878489Y-117998694D01*
X137906061Y-117980271D01*
X137979042Y-117871048D01*
X137998200Y-117774732D01*
X138004669Y-117742210D01*
X137998200Y-117709688D01*
X137998200Y-116331796D01*
X146471800Y-116331796D01*
X146471800Y-117024150D01*
X146617850Y-117170200D01*
X147628200Y-117170200D01*
X147628200Y-116009850D01*
X147983800Y-116009850D01*
X147983800Y-117170200D01*
X148994150Y-117170200D01*
X149140200Y-117024150D01*
X149140200Y-116448000D01*
X150397024Y-116448000D01*
X150397024Y-118248000D01*
X150416737Y-118347106D01*
X150472876Y-118431124D01*
X150556894Y-118487263D01*
X150656000Y-118506976D01*
X152156000Y-118506976D01*
X152255106Y-118487263D01*
X152339124Y-118431124D01*
X152395263Y-118347106D01*
X152414976Y-118248000D01*
X152414976Y-117678200D01*
X152959298Y-117678200D01*
X152991820Y-117684669D01*
X153024342Y-117678200D01*
X153120658Y-117659042D01*
X153229881Y-117586061D01*
X153248304Y-117558489D01*
X154454529Y-116352264D01*
X154457971Y-116349964D01*
X154490477Y-116382470D01*
X154508900Y-116410042D01*
X154597463Y-116469218D01*
X154618123Y-116483023D01*
X154746961Y-116508650D01*
X154754266Y-116507197D01*
X154803475Y-116527580D01*
X154910790Y-116527580D01*
X154936189Y-116502181D01*
X155451811Y-116502181D01*
X155477210Y-116527580D01*
X155584525Y-116527580D01*
X155637031Y-116505831D01*
X155651201Y-116508650D01*
X155683723Y-116502181D01*
X155780039Y-116483023D01*
X155889262Y-116410042D01*
X155907685Y-116382470D01*
X156087799Y-116202356D01*
X156418280Y-116202356D01*
X156517386Y-116182643D01*
X156601404Y-116126504D01*
X156657543Y-116042486D01*
X156677256Y-115943380D01*
X156677256Y-115724940D01*
X158418536Y-115724940D01*
X158456060Y-115732404D01*
X158493584Y-115724940D01*
X158604719Y-115702834D01*
X158730746Y-115618626D01*
X158752004Y-115586811D01*
X159322766Y-115016049D01*
X159595455Y-115129000D01*
X160054545Y-115129000D01*
X160229646Y-115056471D01*
X160251999Y-115402788D01*
X160054545Y-115321000D01*
X159595455Y-115321000D01*
X159171312Y-115496686D01*
X158846686Y-115821312D01*
X158671000Y-116245455D01*
X158671000Y-116704545D01*
X158846686Y-117128688D01*
X159171312Y-117453314D01*
X159223667Y-117475000D01*
X159171312Y-117496686D01*
X158846686Y-117821312D01*
X158671000Y-118245455D01*
X158671000Y-118704545D01*
X158804993Y-119028033D01*
X158417467Y-119415560D01*
X156104229Y-119415560D01*
X156069274Y-119363246D01*
X155985256Y-119307107D01*
X155886150Y-119287394D01*
X155385770Y-119287394D01*
X155286664Y-119307107D01*
X155202646Y-119363246D01*
X155146507Y-119447264D01*
X155126794Y-119546370D01*
X155126794Y-119945150D01*
X155146507Y-120044256D01*
X155164297Y-120070880D01*
X155146507Y-120097504D01*
X155126794Y-120196610D01*
X155126794Y-120595390D01*
X155146507Y-120694496D01*
X155164297Y-120721120D01*
X155146507Y-120747744D01*
X155126794Y-120846850D01*
X155126794Y-121245630D01*
X155146507Y-121344736D01*
X155202646Y-121428754D01*
X155286664Y-121484893D01*
X155385770Y-121504606D01*
X155886150Y-121504606D01*
X155985256Y-121484893D01*
X156069274Y-121428754D01*
X156104229Y-121376440D01*
X157559238Y-121376440D01*
X157591760Y-121382909D01*
X157624282Y-121376440D01*
X157720598Y-121357282D01*
X157829821Y-121284301D01*
X157836364Y-121274509D01*
X157861691Y-121285000D01*
X158114309Y-121285000D01*
X158347698Y-121188327D01*
X158352609Y-121183416D01*
X158368520Y-121385700D01*
X158504704Y-121714478D01*
X158740710Y-121807842D01*
X159573553Y-120975000D01*
X159559410Y-120960858D01*
X159810858Y-120709410D01*
X159825000Y-120723553D01*
X159839143Y-120709411D01*
X160090590Y-120960858D01*
X160076447Y-120975000D01*
X160090590Y-120989142D01*
X159839142Y-121240590D01*
X159825000Y-121226447D01*
X158992158Y-122059290D01*
X159085522Y-122295296D01*
X159647066Y-122477780D01*
X159865218Y-122460621D01*
X159648004Y-122903131D01*
X159747883Y-123147200D01*
X161747200Y-123147200D01*
X161747200Y-121740800D01*
X162102800Y-121740800D01*
X162102800Y-123147200D01*
X164102117Y-123147200D01*
X164201996Y-122903131D01*
X163920922Y-122330525D01*
X163445513Y-121929431D01*
X162852800Y-121740800D01*
X162102800Y-121740800D01*
X161747200Y-121740800D01*
X161078759Y-121740800D01*
X161145296Y-121714478D01*
X161269887Y-121331083D01*
X161699171Y-121477280D01*
X162367796Y-121434123D01*
X162785073Y-121261281D01*
X162903107Y-121004554D01*
X161925000Y-120026447D01*
X161910858Y-120040590D01*
X161659411Y-119789143D01*
X161673553Y-119775000D01*
X162176447Y-119775000D01*
X163154554Y-120753107D01*
X163411281Y-120635073D01*
X163627280Y-120000829D01*
X163584123Y-119332204D01*
X163411281Y-118914927D01*
X163154554Y-118796893D01*
X162176447Y-119775000D01*
X161673553Y-119775000D01*
X161659411Y-119760858D01*
X161910858Y-119509411D01*
X161925000Y-119523553D01*
X162903107Y-118545446D01*
X162785073Y-118288719D01*
X162150829Y-118072720D01*
X161482204Y-118115877D01*
X161064927Y-118288719D01*
X160979000Y-118475612D01*
X160979000Y-118245455D01*
X160803314Y-117821312D01*
X160478688Y-117496686D01*
X160426333Y-117475000D01*
X160478688Y-117453314D01*
X160803314Y-117128688D01*
X160979000Y-116704545D01*
X160979000Y-116474388D01*
X161064927Y-116661281D01*
X161699171Y-116877280D01*
X162367796Y-116834123D01*
X162785073Y-116661281D01*
X162903107Y-116404554D01*
X161925000Y-115426447D01*
X161910858Y-115440590D01*
X161659411Y-115189143D01*
X161673553Y-115175000D01*
X162176447Y-115175000D01*
X163154554Y-116153107D01*
X163411281Y-116035073D01*
X163627280Y-115400829D01*
X163584123Y-114732204D01*
X163411281Y-114314927D01*
X163154554Y-114196893D01*
X162176447Y-115175000D01*
X161673553Y-115175000D01*
X161659411Y-115160858D01*
X161910858Y-114909411D01*
X161925000Y-114923553D01*
X162903107Y-113945446D01*
X162785073Y-113688719D01*
X162150829Y-113472720D01*
X161482204Y-113515877D01*
X161064927Y-113688719D01*
X160979000Y-113875612D01*
X160979000Y-113745455D01*
X160803314Y-113321312D01*
X160548358Y-113066356D01*
X160997200Y-113209200D01*
X161747200Y-113209200D01*
X161747200Y-111802800D01*
X162102800Y-111802800D01*
X162102800Y-113209200D01*
X162852800Y-113209200D01*
X163445513Y-113020569D01*
X163920922Y-112619475D01*
X164201996Y-112046869D01*
X164102117Y-111802800D01*
X162102800Y-111802800D01*
X161747200Y-111802800D01*
X159747883Y-111802800D01*
X159648004Y-112046869D01*
X159929078Y-112619475D01*
X160277311Y-112913273D01*
X160054545Y-112821000D01*
X159595455Y-112821000D01*
X159171312Y-112996686D01*
X158846686Y-113321312D01*
X158671000Y-113745455D01*
X158671000Y-114204545D01*
X158783951Y-114477234D01*
X158298245Y-114962940D01*
X156677256Y-114962940D01*
X156677256Y-114744500D01*
X156657543Y-114645394D01*
X156601404Y-114561376D01*
X156517386Y-114505237D01*
X156418280Y-114485524D01*
X155993382Y-114485524D01*
X155963581Y-114413578D01*
X155799243Y-114249239D01*
X155584525Y-114160300D01*
X155477210Y-114160300D01*
X155331160Y-114306350D01*
X155331160Y-115166140D01*
X155391800Y-115166140D01*
X155391800Y-115521740D01*
X155331160Y-115521740D01*
X155331160Y-115841781D01*
X155056840Y-115841781D01*
X155056840Y-115521740D01*
X154996200Y-115521740D01*
X154996200Y-115166140D01*
X155056840Y-115166140D01*
X155056840Y-114306350D01*
X154910790Y-114160300D01*
X154803475Y-114160300D01*
X154588757Y-114249239D01*
X154424419Y-114413578D01*
X154394618Y-114485524D01*
X153969720Y-114485524D01*
X153870614Y-114505237D01*
X153786596Y-114561376D01*
X153730457Y-114645394D01*
X153710744Y-114744500D01*
X153710744Y-115943380D01*
X153730457Y-116042486D01*
X153770473Y-116102374D01*
X152855047Y-117017800D01*
X152414976Y-117017800D01*
X152414976Y-116448000D01*
X152395263Y-116348894D01*
X152339124Y-116264876D01*
X152255106Y-116208737D01*
X152156000Y-116189024D01*
X150656000Y-116189024D01*
X150556894Y-116208737D01*
X150472876Y-116264876D01*
X150416737Y-116348894D01*
X150397024Y-116448000D01*
X149140200Y-116448000D01*
X149140200Y-116331796D01*
X149051261Y-116117078D01*
X148886923Y-115952739D01*
X148672205Y-115863800D01*
X148129850Y-115863800D01*
X147983800Y-116009850D01*
X147628200Y-116009850D01*
X147482150Y-115863800D01*
X146939795Y-115863800D01*
X146725077Y-115952739D01*
X146560739Y-116117078D01*
X146471800Y-116331796D01*
X137998200Y-116331796D01*
X137998200Y-113245370D01*
X138383998Y-113085567D01*
X138739567Y-112729998D01*
X138932000Y-112265425D01*
X138932000Y-111887691D01*
X139319000Y-111887691D01*
X139319000Y-112140309D01*
X139415673Y-112373698D01*
X139594302Y-112552327D01*
X139827691Y-112649000D01*
X140080309Y-112649000D01*
X140313698Y-112552327D01*
X140492327Y-112373698D01*
X140504545Y-112344200D01*
X140754630Y-112344200D01*
X140914433Y-112729998D01*
X141270002Y-113085567D01*
X141734575Y-113278000D01*
X142237425Y-113278000D01*
X142623223Y-113118197D01*
X144015518Y-114510491D01*
X144033939Y-114538061D01*
X144143162Y-114611042D01*
X144239478Y-114630200D01*
X144239482Y-114630200D01*
X144271999Y-114636668D01*
X144304516Y-114630200D01*
X146521024Y-114630200D01*
X146521024Y-115200000D01*
X146540737Y-115299106D01*
X146596876Y-115383124D01*
X146680894Y-115439263D01*
X146780000Y-115458976D01*
X148280000Y-115458976D01*
X148379106Y-115439263D01*
X148463124Y-115383124D01*
X148519263Y-115299106D01*
X148538976Y-115200000D01*
X148538976Y-114623850D01*
X149795800Y-114623850D01*
X149795800Y-115316204D01*
X149884739Y-115530922D01*
X150049077Y-115695261D01*
X150263795Y-115784200D01*
X150806150Y-115784200D01*
X150952200Y-115638150D01*
X150952200Y-114477800D01*
X151307800Y-114477800D01*
X151307800Y-115638150D01*
X151453850Y-115784200D01*
X151996205Y-115784200D01*
X152210923Y-115695261D01*
X152375261Y-115530922D01*
X152464200Y-115316204D01*
X152464200Y-114623850D01*
X152318150Y-114477800D01*
X151307800Y-114477800D01*
X150952200Y-114477800D01*
X149941850Y-114477800D01*
X149795800Y-114623850D01*
X148538976Y-114623850D01*
X148538976Y-113400000D01*
X148519263Y-113300894D01*
X148507839Y-113283796D01*
X149795800Y-113283796D01*
X149795800Y-113976150D01*
X149941850Y-114122200D01*
X150952200Y-114122200D01*
X150952200Y-112961850D01*
X151307800Y-112961850D01*
X151307800Y-114122200D01*
X152318150Y-114122200D01*
X152464200Y-113976150D01*
X152464200Y-113283796D01*
X152375261Y-113069078D01*
X152210923Y-112904739D01*
X151996205Y-112815800D01*
X151453850Y-112815800D01*
X151307800Y-112961850D01*
X150952200Y-112961850D01*
X150806150Y-112815800D01*
X150263795Y-112815800D01*
X150049077Y-112904739D01*
X149884739Y-113069078D01*
X149795800Y-113283796D01*
X148507839Y-113283796D01*
X148463124Y-113216876D01*
X148379106Y-113160737D01*
X148280000Y-113141024D01*
X146780000Y-113141024D01*
X146680894Y-113160737D01*
X146596876Y-113216876D01*
X146540737Y-113300894D01*
X146521024Y-113400000D01*
X146521024Y-113969800D01*
X144408774Y-113969800D01*
X143090197Y-112651223D01*
X143250000Y-112265425D01*
X143250000Y-111762575D01*
X143262000Y-111762575D01*
X143262000Y-112265425D01*
X143454433Y-112729998D01*
X143810002Y-113085567D01*
X144274575Y-113278000D01*
X144777425Y-113278000D01*
X145241998Y-113085567D01*
X145597567Y-112729998D01*
X145630831Y-112649691D01*
X152527000Y-112649691D01*
X152527000Y-112902309D01*
X152623673Y-113135698D01*
X152802302Y-113314327D01*
X153035691Y-113411000D01*
X153288309Y-113411000D01*
X153521698Y-113314327D01*
X153700327Y-113135698D01*
X153703930Y-113127000D01*
X153710704Y-113127000D01*
X153710704Y-113345440D01*
X153730417Y-113444546D01*
X153786556Y-113528564D01*
X153870574Y-113584703D01*
X153969680Y-113604416D01*
X154518320Y-113604416D01*
X154617426Y-113584703D01*
X154701444Y-113528564D01*
X154757583Y-113444546D01*
X154777296Y-113345440D01*
X154777296Y-112146560D01*
X154757583Y-112047454D01*
X154701444Y-111963436D01*
X154617426Y-111907297D01*
X154518320Y-111887584D01*
X153969680Y-111887584D01*
X153870574Y-111907297D01*
X153786556Y-111963436D01*
X153730417Y-112047454D01*
X153710704Y-112146560D01*
X153710704Y-112365000D01*
X153649025Y-112365000D01*
X153521698Y-112237673D01*
X153288309Y-112141000D01*
X153035691Y-112141000D01*
X152802302Y-112237673D01*
X152623673Y-112416302D01*
X152527000Y-112649691D01*
X145630831Y-112649691D01*
X145736328Y-112395000D01*
X146868476Y-112395000D01*
X146906000Y-112402464D01*
X146943524Y-112395000D01*
X147054659Y-112372894D01*
X147180686Y-112288686D01*
X147201944Y-112256871D01*
X147772871Y-111685944D01*
X147804686Y-111664686D01*
X147888894Y-111538659D01*
X147911000Y-111427524D01*
X147917474Y-111394976D01*
X148280000Y-111394976D01*
X148379106Y-111375263D01*
X148463124Y-111319124D01*
X148519263Y-111235106D01*
X148538976Y-111136000D01*
X148538976Y-110559850D01*
X149795800Y-110559850D01*
X149795800Y-111252204D01*
X149884739Y-111466922D01*
X150049077Y-111631261D01*
X150263795Y-111720200D01*
X150806150Y-111720200D01*
X150952200Y-111574150D01*
X150952200Y-110413800D01*
X151307800Y-110413800D01*
X151307800Y-111574150D01*
X151453850Y-111720200D01*
X151996205Y-111720200D01*
X152210923Y-111631261D01*
X152375261Y-111466922D01*
X152464200Y-111252204D01*
X152464200Y-110559850D01*
X152318150Y-110413800D01*
X151307800Y-110413800D01*
X150952200Y-110413800D01*
X149941850Y-110413800D01*
X149795800Y-110559850D01*
X148538976Y-110559850D01*
X148538976Y-109336000D01*
X148519263Y-109236894D01*
X148507839Y-109219796D01*
X149795800Y-109219796D01*
X149795800Y-109912150D01*
X149941850Y-110058200D01*
X150952200Y-110058200D01*
X150952200Y-108897850D01*
X151307800Y-108897850D01*
X151307800Y-110058200D01*
X152318150Y-110058200D01*
X152464200Y-109912150D01*
X152464200Y-109219796D01*
X152375261Y-109005078D01*
X152210923Y-108840739D01*
X152180169Y-108828000D01*
X152639024Y-108828000D01*
X152639024Y-110628000D01*
X152658737Y-110727106D01*
X152714876Y-110811124D01*
X152798894Y-110867263D01*
X152898000Y-110886976D01*
X154141023Y-110886976D01*
X155610664Y-112356617D01*
X155610664Y-113347500D01*
X155630377Y-113446606D01*
X155686516Y-113530624D01*
X155770534Y-113586763D01*
X155869640Y-113606476D01*
X156418280Y-113606476D01*
X156517386Y-113586763D01*
X156601404Y-113530624D01*
X156657543Y-113446606D01*
X156677256Y-113347500D01*
X156677256Y-112148620D01*
X156657543Y-112049514D01*
X156601404Y-111965496D01*
X156517386Y-111909357D01*
X156418280Y-111889644D01*
X156077637Y-111889644D01*
X154656976Y-110468983D01*
X154656976Y-110051850D01*
X155913800Y-110051850D01*
X155913800Y-110744204D01*
X156002739Y-110958922D01*
X156167077Y-111123261D01*
X156381795Y-111212200D01*
X156924150Y-111212200D01*
X157070200Y-111066150D01*
X157070200Y-109905800D01*
X157425800Y-109905800D01*
X157425800Y-111066150D01*
X157571850Y-111212200D01*
X158114205Y-111212200D01*
X158136099Y-111203131D01*
X159648004Y-111203131D01*
X159747883Y-111447200D01*
X161747200Y-111447200D01*
X161747200Y-110040800D01*
X162102800Y-110040800D01*
X162102800Y-111447200D01*
X164102117Y-111447200D01*
X164201996Y-111203131D01*
X163920922Y-110630525D01*
X163445513Y-110229431D01*
X162852800Y-110040800D01*
X162102800Y-110040800D01*
X161747200Y-110040800D01*
X160997200Y-110040800D01*
X160404487Y-110229431D01*
X159929078Y-110630525D01*
X159648004Y-111203131D01*
X158136099Y-111203131D01*
X158328923Y-111123261D01*
X158493261Y-110958922D01*
X158582200Y-110744204D01*
X158582200Y-110051850D01*
X158436150Y-109905800D01*
X157425800Y-109905800D01*
X157070200Y-109905800D01*
X156059850Y-109905800D01*
X155913800Y-110051850D01*
X154656976Y-110051850D01*
X154656976Y-108828000D01*
X154637263Y-108728894D01*
X154625839Y-108711796D01*
X155913800Y-108711796D01*
X155913800Y-109404150D01*
X156059850Y-109550200D01*
X157070200Y-109550200D01*
X157070200Y-108389850D01*
X157425800Y-108389850D01*
X157425800Y-109550200D01*
X158436150Y-109550200D01*
X158582200Y-109404150D01*
X158582200Y-108711796D01*
X158493261Y-108497078D01*
X158328923Y-108332739D01*
X158114205Y-108243800D01*
X157571850Y-108243800D01*
X157425800Y-108389850D01*
X157070200Y-108389850D01*
X156924150Y-108243800D01*
X156381795Y-108243800D01*
X156167077Y-108332739D01*
X156002739Y-108497078D01*
X155913800Y-108711796D01*
X154625839Y-108711796D01*
X154581124Y-108644876D01*
X154497106Y-108588737D01*
X154398000Y-108569024D01*
X152898000Y-108569024D01*
X152798894Y-108588737D01*
X152714876Y-108644876D01*
X152658737Y-108728894D01*
X152639024Y-108828000D01*
X152180169Y-108828000D01*
X151996205Y-108751800D01*
X151453850Y-108751800D01*
X151307800Y-108897850D01*
X150952200Y-108897850D01*
X150806150Y-108751800D01*
X150263795Y-108751800D01*
X150049077Y-108840739D01*
X149884739Y-109005078D01*
X149795800Y-109219796D01*
X148507839Y-109219796D01*
X148463124Y-109152876D01*
X148379106Y-109096737D01*
X148280000Y-109077024D01*
X146780000Y-109077024D01*
X146680894Y-109096737D01*
X146596876Y-109152876D01*
X146540737Y-109236894D01*
X146521024Y-109336000D01*
X146521024Y-111136000D01*
X146540737Y-111235106D01*
X146596876Y-111319124D01*
X146680894Y-111375263D01*
X146780000Y-111394976D01*
X146986209Y-111394976D01*
X146748185Y-111633000D01*
X145736328Y-111633000D01*
X145597567Y-111298002D01*
X145241998Y-110942433D01*
X144777425Y-110750000D01*
X144274575Y-110750000D01*
X143810002Y-110942433D01*
X143454433Y-111298002D01*
X143262000Y-111762575D01*
X143250000Y-111762575D01*
X143057567Y-111298002D01*
X142701998Y-110942433D01*
X142237425Y-110750000D01*
X141734575Y-110750000D01*
X141270002Y-110942433D01*
X140914433Y-111298002D01*
X140754630Y-111683800D01*
X140504545Y-111683800D01*
X140492327Y-111654302D01*
X140313698Y-111475673D01*
X140080309Y-111379000D01*
X139827691Y-111379000D01*
X139594302Y-111475673D01*
X139415673Y-111654302D01*
X139319000Y-111887691D01*
X138932000Y-111887691D01*
X138932000Y-111762575D01*
X138739567Y-111298002D01*
X138383998Y-110942433D01*
X137919425Y-110750000D01*
X137416575Y-110750000D01*
X136952002Y-110942433D01*
X136596433Y-111298002D01*
X136404000Y-111762575D01*
X136404000Y-112265425D01*
X136596433Y-112729998D01*
X136952002Y-113085567D01*
X137337800Y-113245370D01*
X137337801Y-117135776D01*
X137265698Y-117063673D01*
X137032309Y-116967000D01*
X136779691Y-116967000D01*
X136546302Y-117063673D01*
X136388975Y-117221000D01*
X135838623Y-117221000D01*
X135801099Y-117213536D01*
X135750283Y-117223644D01*
X135404756Y-117223644D01*
X135404756Y-116905850D01*
X135439042Y-116854538D01*
X135458200Y-116758222D01*
X135458200Y-116758218D01*
X135464668Y-116725701D01*
X135458200Y-116693184D01*
X135458200Y-113245370D01*
X135843998Y-113085567D01*
X136199567Y-112729998D01*
X136392000Y-112265425D01*
X136392000Y-111762575D01*
X136199567Y-111298002D01*
X135843998Y-110942433D01*
X135379425Y-110750000D01*
X134876575Y-110750000D01*
X134412002Y-110942433D01*
X134056433Y-111298002D01*
X134046630Y-111321667D01*
X133999619Y-111208172D01*
X133752222Y-111101225D01*
X132839447Y-112014000D01*
X133752222Y-112926775D01*
X133999619Y-112819828D01*
X134041591Y-112694167D01*
X134056433Y-112729998D01*
X134412002Y-113085567D01*
X134797800Y-113245370D01*
X134797801Y-116233753D01*
X134746954Y-116243867D01*
X134745730Y-116244685D01*
X134744506Y-116243867D01*
X134645400Y-116224154D01*
X134345680Y-116224154D01*
X134246574Y-116243867D01*
X134245350Y-116244685D01*
X134244126Y-116243867D01*
X134145020Y-116224154D01*
X133845300Y-116224154D01*
X133746194Y-116243867D01*
X133744970Y-116244685D01*
X133743746Y-116243867D01*
X133644640Y-116224154D01*
X133344920Y-116224154D01*
X133245814Y-116243867D01*
X133244590Y-116244685D01*
X133243366Y-116243867D01*
X133144260Y-116224154D01*
X132844540Y-116224154D01*
X132745434Y-116243867D01*
X132744210Y-116244685D01*
X132742986Y-116243867D01*
X132643880Y-116224154D01*
X132344160Y-116224154D01*
X132245054Y-116243867D01*
X132243830Y-116244685D01*
X132242606Y-116243867D01*
X132143500Y-116224154D01*
X132069871Y-116224154D01*
X132110327Y-116183698D01*
X132207000Y-115950309D01*
X132207000Y-115697691D01*
X132110327Y-115464302D01*
X131931698Y-115285673D01*
X131698309Y-115189000D01*
X131445691Y-115189000D01*
X131212302Y-115285673D01*
X131033673Y-115464302D01*
X130937000Y-115697691D01*
X130937000Y-115898930D01*
X130815078Y-115898930D01*
X130815078Y-115942108D01*
X130771900Y-115898930D01*
X130726815Y-115898930D01*
X130599180Y-115951798D01*
X130599180Y-115015704D01*
X130606644Y-114978180D01*
X130577074Y-114829521D01*
X130514121Y-114735305D01*
X130492866Y-114703494D01*
X130461055Y-114682239D01*
X128651000Y-112872185D01*
X128651000Y-112649691D01*
X128554327Y-112416302D01*
X128375698Y-112237673D01*
X128142309Y-112141000D01*
X127889691Y-112141000D01*
X127656302Y-112237673D01*
X127477673Y-112416302D01*
X127381000Y-112649691D01*
X127381000Y-112902309D01*
X127477673Y-113135698D01*
X127656302Y-113314327D01*
X127889691Y-113411000D01*
X128112185Y-113411000D01*
X129837180Y-115135996D01*
X129837181Y-117224907D01*
X129744424Y-117243357D01*
X129660406Y-117299496D01*
X129604267Y-117383514D01*
X129584554Y-117482620D01*
X129584554Y-117559310D01*
X127362421Y-115337178D01*
X127343998Y-115309606D01*
X127234775Y-115236625D01*
X127138459Y-115217467D01*
X127113661Y-115212534D01*
X127164485Y-115089833D01*
X127164485Y-114598978D01*
X127018435Y-114452928D01*
X126161185Y-114452928D01*
X126161185Y-114472928D01*
X125805585Y-114472928D01*
X125805585Y-114452928D01*
X125785585Y-114452928D01*
X125785585Y-114097328D01*
X125805585Y-114097328D01*
X125805585Y-113138478D01*
X126161185Y-113138478D01*
X126161185Y-114097328D01*
X127018435Y-114097328D01*
X127164485Y-113951278D01*
X127164485Y-113460423D01*
X127075546Y-113245705D01*
X126911207Y-113081367D01*
X126696489Y-112992428D01*
X126307235Y-112992428D01*
X126161185Y-113138478D01*
X125805585Y-113138478D01*
X125659535Y-112992428D01*
X125270281Y-112992428D01*
X125055563Y-113081367D01*
X124891224Y-113245705D01*
X124861423Y-113317652D01*
X123794354Y-113317652D01*
X123782518Y-113299939D01*
X123673295Y-113226958D01*
X123593379Y-113211062D01*
X123544457Y-113201331D01*
X123511935Y-113207800D01*
X121680976Y-113207800D01*
X121680976Y-112673001D01*
X121814302Y-112806327D01*
X122047691Y-112903000D01*
X122300309Y-112903000D01*
X122533698Y-112806327D01*
X122712327Y-112627698D01*
X122809000Y-112394309D01*
X122809000Y-112268001D01*
X124053475Y-112268001D01*
X124090999Y-112275465D01*
X124128523Y-112268001D01*
X124239658Y-112245895D01*
X124365685Y-112161687D01*
X124386943Y-112129872D01*
X125737024Y-110779792D01*
X125737024Y-111136000D01*
X125756737Y-111235106D01*
X125812876Y-111319124D01*
X125896894Y-111375263D01*
X125996000Y-111394976D01*
X127496000Y-111394976D01*
X127595106Y-111375263D01*
X127679124Y-111319124D01*
X127735263Y-111235106D01*
X127754976Y-111136000D01*
X127754976Y-110617000D01*
X128112185Y-110617000D01*
X128922761Y-111427577D01*
X128784000Y-111762575D01*
X128784000Y-112265425D01*
X128976433Y-112729998D01*
X129332002Y-113085567D01*
X129796575Y-113278000D01*
X130299425Y-113278000D01*
X130540309Y-113178222D01*
X131675225Y-113178222D01*
X131782172Y-113425619D01*
X132383715Y-113626543D01*
X133016359Y-113581972D01*
X133393828Y-113425619D01*
X133500775Y-113178222D01*
X132588000Y-112265447D01*
X131675225Y-113178222D01*
X130540309Y-113178222D01*
X130763998Y-113085567D01*
X131119567Y-112729998D01*
X131129370Y-112706333D01*
X131176381Y-112819828D01*
X131423778Y-112926775D01*
X132336553Y-112014000D01*
X131423778Y-111101225D01*
X131176381Y-111208172D01*
X131134409Y-111333833D01*
X131119567Y-111298002D01*
X130763998Y-110942433D01*
X130540310Y-110849778D01*
X131675225Y-110849778D01*
X132588000Y-111762553D01*
X133500775Y-110849778D01*
X133393828Y-110602381D01*
X132792285Y-110401457D01*
X132159641Y-110446028D01*
X131782172Y-110602381D01*
X131675225Y-110849778D01*
X130540310Y-110849778D01*
X130299425Y-110750000D01*
X129796575Y-110750000D01*
X129461577Y-110888761D01*
X128565944Y-109993129D01*
X128544686Y-109961314D01*
X128418659Y-109877106D01*
X128307524Y-109855000D01*
X128270000Y-109847536D01*
X128232476Y-109855000D01*
X127754976Y-109855000D01*
X127754976Y-109336000D01*
X127735263Y-109236894D01*
X127679124Y-109152876D01*
X127595106Y-109096737D01*
X127496000Y-109077024D01*
X125996000Y-109077024D01*
X125896894Y-109096737D01*
X125812876Y-109152876D01*
X125756737Y-109236894D01*
X125737024Y-109336000D01*
X125737024Y-109848526D01*
X125593341Y-109877106D01*
X125467314Y-109961314D01*
X125446058Y-109993126D01*
X124480200Y-110958985D01*
X124480200Y-110559850D01*
X124334150Y-110413800D01*
X123323800Y-110413800D01*
X123323800Y-110433800D01*
X122968200Y-110433800D01*
X122968200Y-110413800D01*
X121957850Y-110413800D01*
X121811800Y-110559850D01*
X121811800Y-111252204D01*
X121900739Y-111466922D01*
X122065077Y-111631261D01*
X122069275Y-111633000D01*
X122047691Y-111633000D01*
X121814302Y-111729673D01*
X121635673Y-111908302D01*
X121539000Y-112141691D01*
X121539000Y-112394309D01*
X121548384Y-112416963D01*
X121521106Y-112398737D01*
X121422000Y-112379024D01*
X119922000Y-112379024D01*
X119822894Y-112398737D01*
X119738876Y-112454876D01*
X119682737Y-112538894D01*
X119663024Y-112638000D01*
X119663024Y-114438000D01*
X119682737Y-114537106D01*
X119738876Y-114621124D01*
X119822894Y-114677263D01*
X119922000Y-114696976D01*
X121422000Y-114696976D01*
X121521106Y-114677263D01*
X121605124Y-114621124D01*
X121661263Y-114537106D01*
X121680976Y-114438000D01*
X121680976Y-113868200D01*
X123407684Y-113868200D01*
X123425709Y-113886225D01*
X123425709Y-114973628D01*
X123445422Y-115072734D01*
X123501561Y-115156752D01*
X123559798Y-115195665D01*
X123353763Y-115281007D01*
X123189424Y-115445345D01*
X123100485Y-115660063D01*
X123100485Y-116150918D01*
X123246535Y-116296968D01*
X124103785Y-116296968D01*
X124103785Y-116276968D01*
X124459385Y-116276968D01*
X124459385Y-116296968D01*
X124479385Y-116296968D01*
X124479385Y-116652568D01*
X124459385Y-116652568D01*
X124459385Y-117071669D01*
X124103785Y-117071669D01*
X124103785Y-116652568D01*
X123246535Y-116652568D01*
X123233006Y-116666097D01*
X122942419Y-116375511D01*
X122923996Y-116347939D01*
X122814773Y-116274958D01*
X122718457Y-116255800D01*
X122685935Y-116249331D01*
X122653413Y-116255800D01*
X121680976Y-116255800D01*
X121680976Y-115686000D01*
X121661263Y-115586894D01*
X121605124Y-115502876D01*
X121521106Y-115446737D01*
X121422000Y-115427024D01*
X119922000Y-115427024D01*
X119822894Y-115446737D01*
X119738876Y-115502876D01*
X119682737Y-115586894D01*
X119663024Y-115686000D01*
X119663024Y-117486000D01*
X119682737Y-117585106D01*
X119738876Y-117669124D01*
X119822894Y-117725263D01*
X119922000Y-117744976D01*
X121422000Y-117744976D01*
X121521106Y-117725263D01*
X121605124Y-117669124D01*
X121661263Y-117585106D01*
X121680976Y-117486000D01*
X121680976Y-116916200D01*
X122549162Y-116916200D01*
X123245321Y-117612360D01*
X123263743Y-117639930D01*
X123291312Y-117658351D01*
X123291313Y-117658352D01*
X123372966Y-117712911D01*
X123501803Y-117738538D01*
X123515975Y-117735719D01*
X123568481Y-117757468D01*
X123957735Y-117757468D01*
X123983134Y-117732069D01*
X124580036Y-117732069D01*
X124605435Y-117757468D01*
X124994689Y-117757468D01*
X125056008Y-117732069D01*
X125125362Y-117732069D01*
X125157884Y-117738538D01*
X125190406Y-117732069D01*
X125286722Y-117712911D01*
X125395945Y-117639930D01*
X125414368Y-117612358D01*
X125594482Y-117432244D01*
X126580285Y-117432244D01*
X126679391Y-117412531D01*
X126763409Y-117356392D01*
X126819548Y-117272374D01*
X126839261Y-117173268D01*
X126839261Y-117048317D01*
X128594364Y-118803420D01*
X126926793Y-118803420D01*
X126784884Y-118661511D01*
X126766461Y-118633939D01*
X126657238Y-118560958D01*
X126634976Y-118556530D01*
X126634976Y-118122000D01*
X126615263Y-118022894D01*
X126559124Y-117938876D01*
X126475106Y-117882737D01*
X126376000Y-117863024D01*
X124576000Y-117863024D01*
X124476894Y-117882737D01*
X124392876Y-117938876D01*
X124336737Y-118022894D01*
X124317024Y-118122000D01*
X124317024Y-119622000D01*
X124336737Y-119721106D01*
X124392876Y-119805124D01*
X124476894Y-119861263D01*
X124576000Y-119880976D01*
X126376000Y-119880976D01*
X126475106Y-119861263D01*
X126559124Y-119805124D01*
X126615263Y-119721106D01*
X126634976Y-119622000D01*
X126634976Y-119427151D01*
X126661182Y-119444662D01*
X126790020Y-119470289D01*
X126822542Y-119463820D01*
X129310130Y-119463820D01*
X129405380Y-119559070D01*
X130040380Y-119559070D01*
X130040380Y-119542456D01*
X130395980Y-119542456D01*
X130395980Y-119559070D01*
X130415980Y-119559070D01*
X130415980Y-119708930D01*
X130395980Y-119708930D01*
X130395980Y-119725544D01*
X130040380Y-119725544D01*
X130040380Y-119708930D01*
X129405380Y-119708930D01*
X129259330Y-119854980D01*
X129259330Y-119881955D01*
X129252948Y-119891506D01*
X126953726Y-122190729D01*
X126921914Y-122211985D01*
X126900658Y-122243797D01*
X126866981Y-122294198D01*
X126814152Y-122294198D01*
X126960200Y-122148150D01*
X126960200Y-121605795D01*
X126871261Y-121391077D01*
X126706922Y-121226739D01*
X126492204Y-121137800D01*
X125799850Y-121137800D01*
X125653800Y-121283850D01*
X125653800Y-122294200D01*
X125673800Y-122294200D01*
X125673800Y-122649800D01*
X125653800Y-122649800D01*
X125653800Y-122669800D01*
X125298200Y-122669800D01*
X125298200Y-122649800D01*
X124137850Y-122649800D01*
X123991800Y-122795850D01*
X123991800Y-122850985D01*
X123623944Y-122483129D01*
X123602686Y-122451314D01*
X123476659Y-122367106D01*
X123365524Y-122345000D01*
X123332976Y-122338526D01*
X123332976Y-121976000D01*
X123313263Y-121876894D01*
X123257124Y-121792876D01*
X123173106Y-121736737D01*
X123074000Y-121717024D01*
X121274000Y-121717024D01*
X121174894Y-121736737D01*
X121090876Y-121792876D01*
X121034737Y-121876894D01*
X121015024Y-121976000D01*
X121015024Y-123476000D01*
X121034737Y-123575106D01*
X121090876Y-123659124D01*
X121174894Y-123715263D01*
X121274000Y-123734976D01*
X121793001Y-123734976D01*
X121793000Y-124704975D01*
X121635673Y-124862302D01*
X121539000Y-125095691D01*
X121539000Y-125348309D01*
X121602413Y-125501401D01*
X119455974Y-125501401D01*
X117667549Y-123712976D01*
X117994000Y-123712976D01*
X118093106Y-123693263D01*
X118177124Y-123637124D01*
X118233263Y-123553106D01*
X118252976Y-123454000D01*
X118252976Y-121954000D01*
X118233263Y-121854894D01*
X118177124Y-121770876D01*
X118093106Y-121714737D01*
X117994000Y-121695024D01*
X116194000Y-121695024D01*
X116094894Y-121714737D01*
X116010876Y-121770876D01*
X115954737Y-121854894D01*
X115935024Y-121954000D01*
X114566700Y-121954000D01*
X114566700Y-121605795D01*
X123991800Y-121605795D01*
X123991800Y-122148150D01*
X124137850Y-122294200D01*
X125298200Y-122294200D01*
X125298200Y-121283850D01*
X125152150Y-121137800D01*
X124459796Y-121137800D01*
X124245078Y-121226739D01*
X124080739Y-121391077D01*
X123991800Y-121605795D01*
X114566700Y-121605795D01*
X114566700Y-119427850D01*
X115609800Y-119427850D01*
X115609800Y-119970205D01*
X115698739Y-120184923D01*
X115863078Y-120349261D01*
X116077796Y-120438200D01*
X116770150Y-120438200D01*
X116916200Y-120292150D01*
X116916200Y-119281800D01*
X117271800Y-119281800D01*
X117271800Y-120292150D01*
X117417850Y-120438200D01*
X118110204Y-120438200D01*
X118324922Y-120349261D01*
X118489261Y-120184923D01*
X118578200Y-119970205D01*
X118578200Y-119449850D01*
X120689800Y-119449850D01*
X120689800Y-119992205D01*
X120778739Y-120206923D01*
X120943078Y-120371261D01*
X121157796Y-120460200D01*
X121850150Y-120460200D01*
X121996200Y-120314150D01*
X121996200Y-119303800D01*
X122351800Y-119303800D01*
X122351800Y-120314150D01*
X122497850Y-120460200D01*
X123190204Y-120460200D01*
X123404922Y-120371261D01*
X123569261Y-120206923D01*
X123658200Y-119992205D01*
X123658200Y-119449850D01*
X123512150Y-119303800D01*
X122351800Y-119303800D01*
X121996200Y-119303800D01*
X120835850Y-119303800D01*
X120689800Y-119449850D01*
X118578200Y-119449850D01*
X118578200Y-119427850D01*
X118432150Y-119281800D01*
X117271800Y-119281800D01*
X116916200Y-119281800D01*
X115755850Y-119281800D01*
X115609800Y-119427850D01*
X114566700Y-119427850D01*
X114566700Y-118237795D01*
X115609800Y-118237795D01*
X115609800Y-118780150D01*
X115755850Y-118926200D01*
X116916200Y-118926200D01*
X116916200Y-117915850D01*
X116894200Y-117893850D01*
X116894200Y-116763800D01*
X117249800Y-116763800D01*
X117249800Y-117924150D01*
X117271800Y-117946150D01*
X117271800Y-118926200D01*
X118432150Y-118926200D01*
X118578200Y-118780150D01*
X118578200Y-118259795D01*
X120689800Y-118259795D01*
X120689800Y-118802150D01*
X120835850Y-118948200D01*
X121996200Y-118948200D01*
X121996200Y-117937850D01*
X122351800Y-117937850D01*
X122351800Y-118948200D01*
X123512150Y-118948200D01*
X123658200Y-118802150D01*
X123658200Y-118259795D01*
X123569261Y-118045077D01*
X123404922Y-117880739D01*
X123190204Y-117791800D01*
X122497850Y-117791800D01*
X122351800Y-117937850D01*
X121996200Y-117937850D01*
X121850150Y-117791800D01*
X121157796Y-117791800D01*
X120943078Y-117880739D01*
X120778739Y-118045077D01*
X120689800Y-118259795D01*
X118578200Y-118259795D01*
X118578200Y-118237795D01*
X118489261Y-118023077D01*
X118324922Y-117858739D01*
X118289936Y-117844247D01*
X118317261Y-117816922D01*
X118406200Y-117602204D01*
X118406200Y-116909850D01*
X118260150Y-116763800D01*
X117249800Y-116763800D01*
X116894200Y-116763800D01*
X115883850Y-116763800D01*
X115737800Y-116909850D01*
X115737800Y-117602204D01*
X115826739Y-117816922D01*
X115866951Y-117857135D01*
X115863078Y-117858739D01*
X115698739Y-118023077D01*
X115609800Y-118237795D01*
X114566700Y-118237795D01*
X114566700Y-115569796D01*
X115737800Y-115569796D01*
X115737800Y-116262150D01*
X115883850Y-116408200D01*
X116894200Y-116408200D01*
X116894200Y-115247850D01*
X117249800Y-115247850D01*
X117249800Y-116408200D01*
X118260150Y-116408200D01*
X118406200Y-116262150D01*
X118406200Y-115569796D01*
X118317261Y-115355078D01*
X118152923Y-115190739D01*
X117938205Y-115101800D01*
X117395850Y-115101800D01*
X117249800Y-115247850D01*
X116894200Y-115247850D01*
X116748150Y-115101800D01*
X116205795Y-115101800D01*
X115991077Y-115190739D01*
X115826739Y-115355078D01*
X115737800Y-115569796D01*
X114566700Y-115569796D01*
X114566700Y-113861850D01*
X115737800Y-113861850D01*
X115737800Y-114554204D01*
X115826739Y-114768922D01*
X115991077Y-114933261D01*
X116205795Y-115022200D01*
X116748150Y-115022200D01*
X116894200Y-114876150D01*
X116894200Y-113715800D01*
X117249800Y-113715800D01*
X117249800Y-114876150D01*
X117395850Y-115022200D01*
X117938205Y-115022200D01*
X118152923Y-114933261D01*
X118317261Y-114768922D01*
X118406200Y-114554204D01*
X118406200Y-113861850D01*
X118260150Y-113715800D01*
X117249800Y-113715800D01*
X116894200Y-113715800D01*
X115883850Y-113715800D01*
X115737800Y-113861850D01*
X114566700Y-113861850D01*
X114566700Y-112521796D01*
X115737800Y-112521796D01*
X115737800Y-113214150D01*
X115883850Y-113360200D01*
X116894200Y-113360200D01*
X116894200Y-112199850D01*
X117249800Y-112199850D01*
X117249800Y-113360200D01*
X118260150Y-113360200D01*
X118406200Y-113214150D01*
X118406200Y-112521796D01*
X118317261Y-112307078D01*
X118152923Y-112142739D01*
X117938205Y-112053800D01*
X117395850Y-112053800D01*
X117249800Y-112199850D01*
X116894200Y-112199850D01*
X116748150Y-112053800D01*
X116205795Y-112053800D01*
X115991077Y-112142739D01*
X115826739Y-112307078D01*
X115737800Y-112521796D01*
X114566700Y-112521796D01*
X114566700Y-109219796D01*
X121811800Y-109219796D01*
X121811800Y-109912150D01*
X121957850Y-110058200D01*
X122968200Y-110058200D01*
X122968200Y-108897850D01*
X123323800Y-108897850D01*
X123323800Y-110058200D01*
X124334150Y-110058200D01*
X124480200Y-109912150D01*
X124480200Y-109219796D01*
X124391261Y-109005078D01*
X124226923Y-108840739D01*
X124012205Y-108751800D01*
X123469850Y-108751800D01*
X123323800Y-108897850D01*
X122968200Y-108897850D01*
X122822150Y-108751800D01*
X122279795Y-108751800D01*
X122065077Y-108840739D01*
X121900739Y-109005078D01*
X121811800Y-109219796D01*
X114566700Y-109219796D01*
X114566700Y-108216700D01*
X164833300Y-108216700D01*
X164833301Y-126733300D01*
G36*
X132130800Y-118414800D02*
X133858000Y-118414800D01*
X133858000Y-118394800D01*
X134213600Y-118394800D01*
X134213600Y-118414800D01*
X134233600Y-118414800D01*
X134233600Y-118770400D01*
X134213600Y-118770400D01*
X134213600Y-120497600D01*
X134233600Y-120497600D01*
X134233600Y-120853200D01*
X134213600Y-120853200D01*
X134213600Y-120873200D01*
X133858000Y-120873200D01*
X133858000Y-120853200D01*
X132130800Y-120853200D01*
X132130800Y-120873200D01*
X131775200Y-120873200D01*
X131775200Y-120853200D01*
X131755200Y-120853200D01*
X131755200Y-120497600D01*
X131775200Y-120497600D01*
X131775200Y-118770400D01*
X132130800Y-118770400D01*
X132130800Y-120497600D01*
X133858000Y-120497600D01*
X133858000Y-118770400D01*
X132130800Y-118770400D01*
X131775200Y-118770400D01*
X131755200Y-118770400D01*
X131755200Y-118414800D01*
X131775200Y-118414800D01*
X131775200Y-118394800D01*
X132130800Y-118394800D01*
X132130800Y-118414800D01*
X132130800Y-118414800D01*
G37*
X132130800Y-118414800D02*
X133858000Y-118414800D01*
X133858000Y-118394800D01*
X134213600Y-118394800D01*
X134213600Y-118414800D01*
X134233600Y-118414800D01*
X134233600Y-118770400D01*
X134213600Y-118770400D01*
X134213600Y-120497600D01*
X134233600Y-120497600D01*
X134233600Y-120853200D01*
X134213600Y-120853200D01*
X134213600Y-120873200D01*
X133858000Y-120873200D01*
X133858000Y-120853200D01*
X132130800Y-120853200D01*
X132130800Y-120873200D01*
X131775200Y-120873200D01*
X131775200Y-120853200D01*
X131755200Y-120853200D01*
X131755200Y-120497600D01*
X131775200Y-120497600D01*
X131775200Y-118770400D01*
X132130800Y-118770400D01*
X132130800Y-120497600D01*
X133858000Y-120497600D01*
X133858000Y-118770400D01*
X132130800Y-118770400D01*
X131775200Y-118770400D01*
X131755200Y-118770400D01*
X131755200Y-118414800D01*
X131775200Y-118414800D01*
X131775200Y-118394800D01*
X132130800Y-118394800D01*
X132130800Y-118414800D01*
G36*
X135948420Y-118057930D02*
X135968420Y-118057930D01*
X135968420Y-118207790D01*
X135948420Y-118207790D01*
X135948420Y-118224404D01*
X135592820Y-118224404D01*
X135592820Y-118207790D01*
X135572820Y-118207790D01*
X135572820Y-118057930D01*
X135592820Y-118057930D01*
X135592820Y-118041316D01*
X135948420Y-118041316D01*
X135948420Y-118057930D01*
X135948420Y-118057930D01*
G37*
X135948420Y-118057930D02*
X135968420Y-118057930D01*
X135968420Y-118207790D01*
X135948420Y-118207790D01*
X135948420Y-118224404D01*
X135592820Y-118224404D01*
X135592820Y-118207790D01*
X135572820Y-118207790D01*
X135572820Y-118057930D01*
X135592820Y-118057930D01*
X135592820Y-118041316D01*
X135948420Y-118041316D01*
X135948420Y-118057930D01*
G36*
X131067810Y-116679980D02*
X131084424Y-116679980D01*
X131084424Y-117035580D01*
X131067810Y-117035580D01*
X131067810Y-117055580D01*
X130917950Y-117055580D01*
X130917950Y-117035580D01*
X130843020Y-117035580D01*
X130843020Y-116679980D01*
X130917950Y-116679980D01*
X130917950Y-116659980D01*
X131067810Y-116659980D01*
X131067810Y-116679980D01*
X131067810Y-116679980D01*
G37*
X131067810Y-116679980D02*
X131084424Y-116679980D01*
X131084424Y-117035580D01*
X131067810Y-117035580D01*
X131067810Y-117055580D01*
X130917950Y-117055580D01*
X130917950Y-117035580D01*
X130843020Y-117035580D01*
X130843020Y-116679980D01*
X130917950Y-116679980D01*
X130917950Y-116659980D01*
X131067810Y-116659980D01*
X131067810Y-116679980D01*
G04 #@! TD*
M02*
