G04 #@! TF.GenerationSoftware,KiCad,Pcbnew,5.0.2+dfsg1-1*
G04 #@! TF.CreationDate,2019-08-04T21:32:12-04:00*
G04 #@! TF.ProjectId,rigidkey,72696769-646b-4657-992e-6b696361645f,V01*
G04 #@! TF.SameCoordinates,Original*
G04 #@! TF.FileFunction,Legend,Bot*
G04 #@! TF.FilePolarity,Positive*
%FSLAX46Y46*%
G04 Gerber Fmt 4.6, Leading zero omitted, Abs format (unit mm)*
G04 Created by KiCad (PCBNEW 5.0.2+dfsg1-1) date Sun 04 Aug 2019 09:32:12 PM EDT*
%MOMM*%
%LPD*%
G01*
G04 APERTURE LIST*
%ADD10C,0.121000*%
G04 APERTURE END LIST*
D10*
X144446000Y-117531642D02*
X144231714Y-117603071D01*
X143874571Y-117603071D01*
X143731714Y-117531642D01*
X143660285Y-117460214D01*
X143588857Y-117317357D01*
X143588857Y-117174500D01*
X143660285Y-117031642D01*
X143731714Y-116960214D01*
X143874571Y-116888785D01*
X144160285Y-116817357D01*
X144303142Y-116745928D01*
X144374571Y-116674500D01*
X144446000Y-116531642D01*
X144446000Y-116388785D01*
X144374571Y-116245928D01*
X144303142Y-116174500D01*
X144160285Y-116103071D01*
X143803142Y-116103071D01*
X143588857Y-116174500D01*
X143160285Y-116603071D02*
X142588857Y-116603071D01*
X142946000Y-116103071D02*
X142946000Y-117388785D01*
X142874571Y-117531642D01*
X142731714Y-117603071D01*
X142588857Y-117603071D01*
X141446000Y-116603071D02*
X141446000Y-117603071D01*
X142088857Y-116603071D02*
X142088857Y-117388785D01*
X142017428Y-117531642D01*
X141874571Y-117603071D01*
X141660285Y-117603071D01*
X141517428Y-117531642D01*
X141446000Y-117460214D01*
X140088857Y-117603071D02*
X140088857Y-116103071D01*
X140088857Y-117531642D02*
X140231714Y-117603071D01*
X140517428Y-117603071D01*
X140660285Y-117531642D01*
X140731714Y-117460214D01*
X140803142Y-117317357D01*
X140803142Y-116888785D01*
X140731714Y-116745928D01*
X140660285Y-116674500D01*
X140517428Y-116603071D01*
X140231714Y-116603071D01*
X140088857Y-116674500D01*
X139374571Y-117603071D02*
X139374571Y-116603071D01*
X139374571Y-116103071D02*
X139446000Y-116174500D01*
X139374571Y-116245928D01*
X139303142Y-116174500D01*
X139374571Y-116103071D01*
X139374571Y-116245928D01*
X138446000Y-117603071D02*
X138588857Y-117531642D01*
X138660285Y-117460214D01*
X138731714Y-117317357D01*
X138731714Y-116888785D01*
X138660285Y-116745928D01*
X138588857Y-116674500D01*
X138446000Y-116603071D01*
X138231714Y-116603071D01*
X138088857Y-116674500D01*
X138017428Y-116745928D01*
X137946000Y-116888785D01*
X137946000Y-117317357D01*
X138017428Y-117460214D01*
X138088857Y-117531642D01*
X138231714Y-117603071D01*
X138446000Y-117603071D01*
X137017428Y-116103071D02*
X136874571Y-116103071D01*
X136731714Y-116174500D01*
X136660285Y-116245928D01*
X136588857Y-116388785D01*
X136517428Y-116674500D01*
X136517428Y-117031642D01*
X136588857Y-117317357D01*
X136660285Y-117460214D01*
X136731714Y-117531642D01*
X136874571Y-117603071D01*
X137017428Y-117603071D01*
X137160285Y-117531642D01*
X137231714Y-117460214D01*
X137303142Y-117317357D01*
X137374571Y-117031642D01*
X137374571Y-116674500D01*
X137303142Y-116388785D01*
X137231714Y-116245928D01*
X137160285Y-116174500D01*
X137017428Y-116103071D01*
X136017428Y-117603071D02*
X135231714Y-116603071D01*
X136017428Y-116603071D02*
X135231714Y-117603071D01*
X134874571Y-116603071D02*
X134303142Y-116603071D01*
X134660285Y-117603071D02*
X134660285Y-116317357D01*
X134588857Y-116174500D01*
X134446000Y-116103071D01*
X134303142Y-116103071D01*
X148410285Y-119974071D02*
X148910285Y-119259785D01*
X149267428Y-119974071D02*
X149267428Y-118474071D01*
X148696000Y-118474071D01*
X148553142Y-118545500D01*
X148481714Y-118616928D01*
X148410285Y-118759785D01*
X148410285Y-118974071D01*
X148481714Y-119116928D01*
X148553142Y-119188357D01*
X148696000Y-119259785D01*
X149267428Y-119259785D01*
X147767428Y-119974071D02*
X147767428Y-118974071D01*
X147767428Y-118474071D02*
X147838857Y-118545500D01*
X147767428Y-118616928D01*
X147696000Y-118545500D01*
X147767428Y-118474071D01*
X147767428Y-118616928D01*
X146410285Y-118974071D02*
X146410285Y-120188357D01*
X146481714Y-120331214D01*
X146553142Y-120402642D01*
X146696000Y-120474071D01*
X146910285Y-120474071D01*
X147053142Y-120402642D01*
X146410285Y-119902642D02*
X146553142Y-119974071D01*
X146838857Y-119974071D01*
X146981714Y-119902642D01*
X147053142Y-119831214D01*
X147124571Y-119688357D01*
X147124571Y-119259785D01*
X147053142Y-119116928D01*
X146981714Y-119045500D01*
X146838857Y-118974071D01*
X146553142Y-118974071D01*
X146410285Y-119045500D01*
X145696000Y-119974071D02*
X145696000Y-118974071D01*
X145696000Y-118474071D02*
X145767428Y-118545500D01*
X145696000Y-118616928D01*
X145624571Y-118545500D01*
X145696000Y-118474071D01*
X145696000Y-118616928D01*
X144338857Y-119974071D02*
X144338857Y-118474071D01*
X144338857Y-119902642D02*
X144481714Y-119974071D01*
X144767428Y-119974071D01*
X144910285Y-119902642D01*
X144981714Y-119831214D01*
X145053142Y-119688357D01*
X145053142Y-119259785D01*
X144981714Y-119116928D01*
X144910285Y-119045500D01*
X144767428Y-118974071D01*
X144481714Y-118974071D01*
X144338857Y-119045500D01*
X143624571Y-119974071D02*
X143624571Y-118474071D01*
X143481714Y-119402642D02*
X143053142Y-119974071D01*
X143053142Y-118974071D02*
X143624571Y-119545500D01*
X141838857Y-119902642D02*
X141981714Y-119974071D01*
X142267428Y-119974071D01*
X142410285Y-119902642D01*
X142481714Y-119759785D01*
X142481714Y-119188357D01*
X142410285Y-119045500D01*
X142267428Y-118974071D01*
X141981714Y-118974071D01*
X141838857Y-119045500D01*
X141767428Y-119188357D01*
X141767428Y-119331214D01*
X142481714Y-119474071D01*
X141267428Y-118974071D02*
X140910285Y-119974071D01*
X140553142Y-118974071D02*
X140910285Y-119974071D01*
X141053142Y-120331214D01*
X141124571Y-120402642D01*
X141267428Y-120474071D01*
X137981714Y-119974071D02*
X138481714Y-119259785D01*
X138838857Y-119974071D02*
X138838857Y-118474071D01*
X138267428Y-118474071D01*
X138124571Y-118545500D01*
X138053142Y-118616928D01*
X137981714Y-118759785D01*
X137981714Y-118974071D01*
X138053142Y-119116928D01*
X138124571Y-119188357D01*
X138267428Y-119259785D01*
X138838857Y-119259785D01*
X136767428Y-119902642D02*
X136910285Y-119974071D01*
X137196000Y-119974071D01*
X137338857Y-119902642D01*
X137410285Y-119759785D01*
X137410285Y-119188357D01*
X137338857Y-119045500D01*
X137196000Y-118974071D01*
X136910285Y-118974071D01*
X136767428Y-119045500D01*
X136696000Y-119188357D01*
X136696000Y-119331214D01*
X137410285Y-119474071D01*
X136196000Y-118974071D02*
X135838857Y-119974071D01*
X135481714Y-118974071D01*
X134910285Y-119831214D02*
X134838857Y-119902642D01*
X134910285Y-119974071D01*
X134981714Y-119902642D01*
X134910285Y-119831214D01*
X134910285Y-119974071D01*
X133267428Y-118474071D02*
X132767428Y-119974071D01*
X132267428Y-118474071D01*
X131481714Y-118474071D02*
X131338857Y-118474071D01*
X131196000Y-118545500D01*
X131124571Y-118616928D01*
X131053142Y-118759785D01*
X130981714Y-119045500D01*
X130981714Y-119402642D01*
X131053142Y-119688357D01*
X131124571Y-119831214D01*
X131196000Y-119902642D01*
X131338857Y-119974071D01*
X131481714Y-119974071D01*
X131624571Y-119902642D01*
X131696000Y-119831214D01*
X131767428Y-119688357D01*
X131838857Y-119402642D01*
X131838857Y-119045500D01*
X131767428Y-118759785D01*
X131696000Y-118616928D01*
X131624571Y-118545500D01*
X131481714Y-118474071D01*
X129553142Y-119974071D02*
X130410285Y-119974071D01*
X129981714Y-119974071D02*
X129981714Y-118474071D01*
X130124571Y-118688357D01*
X130267428Y-118831214D01*
X130410285Y-118902642D01*
M02*
