G04 #@! TF.GenerationSoftware,KiCad,Pcbnew,5.0.2+dfsg1-1*
G04 #@! TF.CreationDate,2019-08-04T21:32:12-04:00*
G04 #@! TF.ProjectId,rigidkey,72696769-646b-4657-992e-6b696361645f,V01*
G04 #@! TF.SameCoordinates,Original*
G04 #@! TF.FileFunction,Copper,L2,Bot*
G04 #@! TF.FilePolarity,Positive*
%FSLAX46Y46*%
G04 Gerber Fmt 4.6, Leading zero omitted, Abs format (unit mm)*
G04 Created by KiCad (PCBNEW 5.0.2+dfsg1-1) date Sun 04 Aug 2019 09:32:12 PM EDT*
%MOMM*%
%LPD*%
G01*
G04 APERTURE LIST*
G04 #@! TA.AperFunction,ComponentPad*
%ADD10C,2.020000*%
G04 #@! TD*
G04 #@! TA.AperFunction,ComponentPad*
%ADD11O,3.500000X2.000000*%
G04 #@! TD*
G04 #@! TA.AperFunction,ComponentPad*
%ADD12C,2.200000*%
G04 #@! TD*
G04 #@! TA.AperFunction,ComponentPad*
%ADD13C,1.800000*%
G04 #@! TD*
G04 #@! TA.AperFunction,ViaPad*
%ADD14C,0.762000*%
G04 #@! TD*
G04 #@! TA.AperFunction,Conductor*
%ADD15C,0.254000*%
G04 #@! TD*
G04 #@! TA.AperFunction,Conductor*
%ADD16C,0.152400*%
G04 #@! TD*
G04 APERTURE END LIST*
D10*
G04 #@! TO.P,J1,1*
G04 #@! TO.N,+3V3*
X130048000Y-112014000D03*
G04 #@! TO.P,J1,2*
G04 #@! TO.N,GND*
X132588000Y-112014000D03*
G04 #@! TO.P,J1,3*
G04 #@! TO.N,Net-(J1-Pad3)*
X135128000Y-112014000D03*
G04 #@! TO.P,J1,4*
G04 #@! TO.N,Net-(J1-Pad4)*
X137668000Y-112014000D03*
G04 #@! TD*
D11*
G04 #@! TO.P,J2,5*
G04 #@! TO.N,GND*
X161925000Y-123325000D03*
X161925000Y-111625000D03*
D12*
X161925000Y-119775000D03*
X161925000Y-115175000D03*
D13*
G04 #@! TO.P,J2,4*
X159825000Y-120975000D03*
G04 #@! TO.P,J2,3*
G04 #@! TO.N,Net-(J2-Pad3)*
X159825000Y-118475000D03*
G04 #@! TO.P,J2,2*
G04 #@! TO.N,Net-(J2-Pad2)*
X159825000Y-116475000D03*
G04 #@! TO.P,J2,1*
G04 #@! TO.N,Net-(C10-Pad1)*
X159825000Y-113975000D03*
G04 #@! TD*
D10*
G04 #@! TO.P,JP1,1*
G04 #@! TO.N,/BOOTO*
X141986000Y-112014000D03*
G04 #@! TO.P,JP1,2*
G04 #@! TO.N,+3V3*
X144526000Y-112014000D03*
G04 #@! TD*
D14*
G04 #@! TO.N,+3V3*
X136398000Y-125222000D03*
X122174000Y-125222000D03*
X122174000Y-112268000D03*
X153162000Y-112776000D03*
X156718000Y-120396000D03*
X136906000Y-117602000D03*
X156718000Y-122428000D03*
X128016000Y-112776000D03*
G04 #@! TO.N,Net-(J2-Pad2)*
X157988000Y-120650000D03*
G04 #@! TO.N,/BOOTO*
X139954000Y-112014000D03*
X131572000Y-115824000D03*
G04 #@! TD*
D15*
G04 #@! TO.N,+3V3*
X136398000Y-125222000D02*
X122174000Y-125222000D01*
X122174000Y-117602000D02*
X122174000Y-112268000D01*
X122174000Y-125222000D02*
X122174000Y-117602000D01*
X153162000Y-112776000D02*
X156718000Y-116332000D01*
X156718000Y-116332000D02*
X156718000Y-120396000D01*
X151892000Y-125222000D02*
X136398000Y-125222000D01*
X156718000Y-120396000D02*
X151892000Y-125222000D01*
X145288000Y-112776000D02*
X144526000Y-112014000D01*
X153162000Y-112776000D02*
X145288000Y-112776000D01*
X136398000Y-125222000D02*
X136398000Y-118110000D01*
X136398000Y-118110000D02*
X136906000Y-117602000D01*
X156718000Y-120396000D02*
X156718000Y-122428000D01*
X122174000Y-112268000D02*
X127508000Y-112268000D01*
X127508000Y-112268000D02*
X128016000Y-112776000D01*
D16*
G04 #@! TO.N,Net-(J2-Pad2)*
X158925001Y-117374999D02*
X159825000Y-116475000D01*
X158368999Y-117931001D02*
X158925001Y-117374999D01*
X158368999Y-120269001D02*
X158368999Y-117931001D01*
X157988000Y-120650000D02*
X158368999Y-120269001D01*
G04 #@! TO.N,/BOOTO*
X139954000Y-112014000D02*
X136144000Y-115824000D01*
X136144000Y-115824000D02*
X131572000Y-115824000D01*
G04 #@! TD*
D15*
G04 #@! TO.N,GND*
G36*
X164452301Y-126352300D02*
X114947700Y-126352300D01*
X114947700Y-112065905D01*
X121158000Y-112065905D01*
X121158000Y-112470095D01*
X121312676Y-112843518D01*
X121412001Y-112942843D01*
X121412000Y-117677047D01*
X121412001Y-117677052D01*
X121412000Y-124547158D01*
X121312676Y-124646482D01*
X121158000Y-125019905D01*
X121158000Y-125424095D01*
X121312676Y-125797518D01*
X121598482Y-126083324D01*
X121971905Y-126238000D01*
X122376095Y-126238000D01*
X122749518Y-126083324D01*
X122848842Y-125984000D01*
X135723158Y-125984000D01*
X135822482Y-126083324D01*
X136195905Y-126238000D01*
X136600095Y-126238000D01*
X136973518Y-126083324D01*
X137072842Y-125984000D01*
X151816957Y-125984000D01*
X151892000Y-125998927D01*
X151967043Y-125984000D01*
X151967048Y-125984000D01*
X152189317Y-125939788D01*
X152441371Y-125771371D01*
X152483883Y-125707747D01*
X154486196Y-123705434D01*
X159584876Y-123705434D01*
X159615856Y-123833355D01*
X159929078Y-124391317D01*
X160431980Y-124786942D01*
X161048000Y-124960000D01*
X161798000Y-124960000D01*
X161798000Y-123452000D01*
X162052000Y-123452000D01*
X162052000Y-124960000D01*
X162802000Y-124960000D01*
X163418020Y-124786942D01*
X163920922Y-124391317D01*
X164234144Y-123833355D01*
X164265124Y-123705434D01*
X164145777Y-123452000D01*
X162052000Y-123452000D01*
X161798000Y-123452000D01*
X159704223Y-123452000D01*
X159584876Y-123705434D01*
X154486196Y-123705434D01*
X155702000Y-122489631D01*
X155702000Y-122630095D01*
X155856676Y-123003518D01*
X156142482Y-123289324D01*
X156515905Y-123444000D01*
X156920095Y-123444000D01*
X157293518Y-123289324D01*
X157579324Y-123003518D01*
X157734000Y-122630095D01*
X157734000Y-122225905D01*
X157579324Y-121852482D01*
X157480000Y-121753158D01*
X157480000Y-121539291D01*
X157785905Y-121666000D01*
X158190095Y-121666000D01*
X158401138Y-121578584D01*
X158488357Y-121789148D01*
X158744841Y-121875554D01*
X159645395Y-120975000D01*
X159631253Y-120960858D01*
X159810858Y-120781253D01*
X159825000Y-120795395D01*
X159839143Y-120781253D01*
X160018748Y-120960858D01*
X160004605Y-120975000D01*
X160018748Y-120989143D01*
X159839143Y-121168748D01*
X159825000Y-121154605D01*
X158924446Y-122055159D01*
X159010852Y-122311643D01*
X159584336Y-122521458D01*
X159786326Y-122512976D01*
X159615856Y-122816645D01*
X159584876Y-122944566D01*
X159704223Y-123198000D01*
X161798000Y-123198000D01*
X161798000Y-121690000D01*
X162052000Y-121690000D01*
X162052000Y-123198000D01*
X164145777Y-123198000D01*
X164265124Y-122944566D01*
X164234144Y-122816645D01*
X163920922Y-122258683D01*
X163418020Y-121863058D01*
X162802000Y-121690000D01*
X162052000Y-121690000D01*
X161798000Y-121690000D01*
X161197917Y-121690000D01*
X161305594Y-121395690D01*
X161636593Y-121520323D01*
X162326453Y-121497836D01*
X162859359Y-121277099D01*
X162970263Y-120999868D01*
X161925000Y-119954605D01*
X161910858Y-119968748D01*
X161731253Y-119789143D01*
X161745395Y-119775000D01*
X162104605Y-119775000D01*
X163149868Y-120820263D01*
X163427099Y-120709359D01*
X163670323Y-120063407D01*
X163647836Y-119373547D01*
X163427099Y-118840641D01*
X163149868Y-118729737D01*
X162104605Y-119775000D01*
X161745395Y-119775000D01*
X161731253Y-119760858D01*
X161910858Y-119581253D01*
X161925000Y-119595395D01*
X162970263Y-118550132D01*
X162859359Y-118272901D01*
X162213407Y-118029677D01*
X161523547Y-118052164D01*
X161342406Y-118127195D01*
X161126310Y-117605493D01*
X160995817Y-117475000D01*
X161126310Y-117344507D01*
X161347155Y-116811339D01*
X161636593Y-116920323D01*
X162326453Y-116897836D01*
X162859359Y-116677099D01*
X162970263Y-116399868D01*
X161925000Y-115354605D01*
X161910858Y-115368748D01*
X161731253Y-115189143D01*
X161745395Y-115175000D01*
X162104605Y-115175000D01*
X163149868Y-116220263D01*
X163427099Y-116109359D01*
X163670323Y-115463407D01*
X163647836Y-114773547D01*
X163427099Y-114240641D01*
X163149868Y-114129737D01*
X162104605Y-115175000D01*
X161745395Y-115175000D01*
X161731253Y-115160858D01*
X161910858Y-114981253D01*
X161925000Y-114995395D01*
X162970263Y-113950132D01*
X162859359Y-113672901D01*
X162213407Y-113429677D01*
X161523547Y-113452164D01*
X161307051Y-113541840D01*
X161190309Y-113260000D01*
X161798000Y-113260000D01*
X161798000Y-111752000D01*
X162052000Y-111752000D01*
X162052000Y-113260000D01*
X162802000Y-113260000D01*
X163418020Y-113086942D01*
X163920922Y-112691317D01*
X164234144Y-112133355D01*
X164265124Y-112005434D01*
X164145777Y-111752000D01*
X162052000Y-111752000D01*
X161798000Y-111752000D01*
X159704223Y-111752000D01*
X159584876Y-112005434D01*
X159615856Y-112133355D01*
X159787997Y-112440000D01*
X159519670Y-112440000D01*
X158955493Y-112673690D01*
X158523690Y-113105493D01*
X158290000Y-113669670D01*
X158290000Y-114280330D01*
X158523690Y-114844507D01*
X158904183Y-115225000D01*
X158523690Y-115605493D01*
X158290000Y-116169670D01*
X158290000Y-116780330D01*
X158355573Y-116938638D01*
X157915633Y-117378579D01*
X157856254Y-117418255D01*
X157816578Y-117477634D01*
X157816575Y-117477637D01*
X157699064Y-117653505D01*
X157643867Y-117931001D01*
X157657800Y-118001047D01*
X157657799Y-119687063D01*
X157507967Y-119749125D01*
X157480000Y-119721158D01*
X157480000Y-116407042D01*
X157494927Y-116331999D01*
X157480000Y-116256956D01*
X157480000Y-116256952D01*
X157435788Y-116034683D01*
X157267371Y-115782629D01*
X157203750Y-115740119D01*
X154178000Y-112714370D01*
X154178000Y-112573905D01*
X154023324Y-112200482D01*
X153737518Y-111914676D01*
X153364095Y-111760000D01*
X152959905Y-111760000D01*
X152586482Y-111914676D01*
X152487158Y-112014000D01*
X146171000Y-112014000D01*
X146171000Y-111686789D01*
X145987825Y-111244566D01*
X159584876Y-111244566D01*
X159704223Y-111498000D01*
X161798000Y-111498000D01*
X161798000Y-109990000D01*
X162052000Y-109990000D01*
X162052000Y-111498000D01*
X164145777Y-111498000D01*
X164265124Y-111244566D01*
X164234144Y-111116645D01*
X163920922Y-110558683D01*
X163418020Y-110163058D01*
X162802000Y-109990000D01*
X162052000Y-109990000D01*
X161798000Y-109990000D01*
X161048000Y-109990000D01*
X160431980Y-110163058D01*
X159929078Y-110558683D01*
X159615856Y-111116645D01*
X159584876Y-111244566D01*
X145987825Y-111244566D01*
X145920563Y-111082183D01*
X145457817Y-110619437D01*
X144853211Y-110369000D01*
X144198789Y-110369000D01*
X143594183Y-110619437D01*
X143256000Y-110957620D01*
X142917817Y-110619437D01*
X142313211Y-110369000D01*
X141658789Y-110369000D01*
X141054183Y-110619437D01*
X140591437Y-111082183D01*
X140552654Y-111175812D01*
X140529518Y-111152676D01*
X140156095Y-110998000D01*
X139751905Y-110998000D01*
X139378482Y-111152676D01*
X139175741Y-111355417D01*
X139062563Y-111082183D01*
X138599817Y-110619437D01*
X137995211Y-110369000D01*
X137340789Y-110369000D01*
X136736183Y-110619437D01*
X136398000Y-110957620D01*
X136059817Y-110619437D01*
X135455211Y-110369000D01*
X134800789Y-110369000D01*
X134196183Y-110619437D01*
X133772543Y-111043077D01*
X133747766Y-111033839D01*
X132767605Y-112014000D01*
X133747766Y-112994161D01*
X133772543Y-112984923D01*
X134196183Y-113408563D01*
X134800789Y-113659000D01*
X135455211Y-113659000D01*
X136059817Y-113408563D01*
X136398000Y-113070380D01*
X136736183Y-113408563D01*
X137314218Y-113647994D01*
X135849412Y-115112800D01*
X132297642Y-115112800D01*
X132147518Y-114962676D01*
X131774095Y-114808000D01*
X131369905Y-114808000D01*
X130996482Y-114962676D01*
X130710676Y-115248482D01*
X130556000Y-115621905D01*
X130556000Y-116026095D01*
X130710676Y-116399518D01*
X130996482Y-116685324D01*
X131369905Y-116840000D01*
X131774095Y-116840000D01*
X132147518Y-116685324D01*
X132297642Y-116535200D01*
X136073959Y-116535200D01*
X136144000Y-116549132D01*
X136214041Y-116535200D01*
X136214046Y-116535200D01*
X136421496Y-116493936D01*
X136656746Y-116336746D01*
X136696424Y-116277364D01*
X139943789Y-113030000D01*
X140156095Y-113030000D01*
X140529518Y-112875324D01*
X140552654Y-112852188D01*
X140591437Y-112945817D01*
X141054183Y-113408563D01*
X141658789Y-113659000D01*
X142313211Y-113659000D01*
X142917817Y-113408563D01*
X143256000Y-113070380D01*
X143594183Y-113408563D01*
X144198789Y-113659000D01*
X144853211Y-113659000D01*
X145167268Y-113528913D01*
X145212952Y-113538000D01*
X145212953Y-113538000D01*
X145288000Y-113552928D01*
X145363047Y-113538000D01*
X152487158Y-113538000D01*
X152586482Y-113637324D01*
X152959905Y-113792000D01*
X153100370Y-113792000D01*
X155956000Y-116647631D01*
X155956001Y-119721157D01*
X155856676Y-119820482D01*
X155702000Y-120193905D01*
X155702000Y-120334369D01*
X151576370Y-124460000D01*
X137160000Y-124460000D01*
X137160000Y-118596500D01*
X137481518Y-118463324D01*
X137767324Y-118177518D01*
X137922000Y-117804095D01*
X137922000Y-117399905D01*
X137767324Y-117026482D01*
X137481518Y-116740676D01*
X137108095Y-116586000D01*
X136703905Y-116586000D01*
X136330482Y-116740676D01*
X136044676Y-117026482D01*
X135890000Y-117399905D01*
X135890000Y-117532986D01*
X135848630Y-117560629D01*
X135806119Y-117624251D01*
X135806118Y-117624252D01*
X135680213Y-117812683D01*
X135621073Y-118110000D01*
X135636001Y-118185048D01*
X135636000Y-124460000D01*
X122936000Y-124460000D01*
X122936000Y-113030000D01*
X127021500Y-113030000D01*
X127154676Y-113351518D01*
X127440482Y-113637324D01*
X127813905Y-113792000D01*
X128218095Y-113792000D01*
X128591518Y-113637324D01*
X128877324Y-113351518D01*
X128930576Y-113222956D01*
X129116183Y-113408563D01*
X129720789Y-113659000D01*
X130375211Y-113659000D01*
X130979817Y-113408563D01*
X131214614Y-113173766D01*
X131607839Y-113173766D01*
X131707726Y-113441658D01*
X132321074Y-113669851D01*
X132975059Y-113645956D01*
X133468274Y-113441658D01*
X133568161Y-113173766D01*
X132588000Y-112193605D01*
X131607839Y-113173766D01*
X131214614Y-113173766D01*
X131403457Y-112984923D01*
X131428234Y-112994161D01*
X132408395Y-112014000D01*
X131428234Y-111033839D01*
X131403457Y-111043077D01*
X131214614Y-110854234D01*
X131607839Y-110854234D01*
X132588000Y-111834395D01*
X133568161Y-110854234D01*
X133468274Y-110586342D01*
X132854926Y-110358149D01*
X132200941Y-110382044D01*
X131707726Y-110586342D01*
X131607839Y-110854234D01*
X131214614Y-110854234D01*
X130979817Y-110619437D01*
X130375211Y-110369000D01*
X129720789Y-110369000D01*
X129116183Y-110619437D01*
X128653437Y-111082183D01*
X128403000Y-111686789D01*
X128403000Y-111836590D01*
X128218095Y-111760000D01*
X128085014Y-111760000D01*
X128057371Y-111718629D01*
X127805317Y-111550212D01*
X127583048Y-111506000D01*
X127583043Y-111506000D01*
X127508000Y-111491073D01*
X127432957Y-111506000D01*
X122848842Y-111506000D01*
X122749518Y-111406676D01*
X122376095Y-111252000D01*
X121971905Y-111252000D01*
X121598482Y-111406676D01*
X121312676Y-111692482D01*
X121158000Y-112065905D01*
X114947700Y-112065905D01*
X114947700Y-108597700D01*
X164452300Y-108597700D01*
X164452301Y-126352300D01*
X164452301Y-126352300D01*
G37*
X164452301Y-126352300D02*
X114947700Y-126352300D01*
X114947700Y-112065905D01*
X121158000Y-112065905D01*
X121158000Y-112470095D01*
X121312676Y-112843518D01*
X121412001Y-112942843D01*
X121412000Y-117677047D01*
X121412001Y-117677052D01*
X121412000Y-124547158D01*
X121312676Y-124646482D01*
X121158000Y-125019905D01*
X121158000Y-125424095D01*
X121312676Y-125797518D01*
X121598482Y-126083324D01*
X121971905Y-126238000D01*
X122376095Y-126238000D01*
X122749518Y-126083324D01*
X122848842Y-125984000D01*
X135723158Y-125984000D01*
X135822482Y-126083324D01*
X136195905Y-126238000D01*
X136600095Y-126238000D01*
X136973518Y-126083324D01*
X137072842Y-125984000D01*
X151816957Y-125984000D01*
X151892000Y-125998927D01*
X151967043Y-125984000D01*
X151967048Y-125984000D01*
X152189317Y-125939788D01*
X152441371Y-125771371D01*
X152483883Y-125707747D01*
X154486196Y-123705434D01*
X159584876Y-123705434D01*
X159615856Y-123833355D01*
X159929078Y-124391317D01*
X160431980Y-124786942D01*
X161048000Y-124960000D01*
X161798000Y-124960000D01*
X161798000Y-123452000D01*
X162052000Y-123452000D01*
X162052000Y-124960000D01*
X162802000Y-124960000D01*
X163418020Y-124786942D01*
X163920922Y-124391317D01*
X164234144Y-123833355D01*
X164265124Y-123705434D01*
X164145777Y-123452000D01*
X162052000Y-123452000D01*
X161798000Y-123452000D01*
X159704223Y-123452000D01*
X159584876Y-123705434D01*
X154486196Y-123705434D01*
X155702000Y-122489631D01*
X155702000Y-122630095D01*
X155856676Y-123003518D01*
X156142482Y-123289324D01*
X156515905Y-123444000D01*
X156920095Y-123444000D01*
X157293518Y-123289324D01*
X157579324Y-123003518D01*
X157734000Y-122630095D01*
X157734000Y-122225905D01*
X157579324Y-121852482D01*
X157480000Y-121753158D01*
X157480000Y-121539291D01*
X157785905Y-121666000D01*
X158190095Y-121666000D01*
X158401138Y-121578584D01*
X158488357Y-121789148D01*
X158744841Y-121875554D01*
X159645395Y-120975000D01*
X159631253Y-120960858D01*
X159810858Y-120781253D01*
X159825000Y-120795395D01*
X159839143Y-120781253D01*
X160018748Y-120960858D01*
X160004605Y-120975000D01*
X160018748Y-120989143D01*
X159839143Y-121168748D01*
X159825000Y-121154605D01*
X158924446Y-122055159D01*
X159010852Y-122311643D01*
X159584336Y-122521458D01*
X159786326Y-122512976D01*
X159615856Y-122816645D01*
X159584876Y-122944566D01*
X159704223Y-123198000D01*
X161798000Y-123198000D01*
X161798000Y-121690000D01*
X162052000Y-121690000D01*
X162052000Y-123198000D01*
X164145777Y-123198000D01*
X164265124Y-122944566D01*
X164234144Y-122816645D01*
X163920922Y-122258683D01*
X163418020Y-121863058D01*
X162802000Y-121690000D01*
X162052000Y-121690000D01*
X161798000Y-121690000D01*
X161197917Y-121690000D01*
X161305594Y-121395690D01*
X161636593Y-121520323D01*
X162326453Y-121497836D01*
X162859359Y-121277099D01*
X162970263Y-120999868D01*
X161925000Y-119954605D01*
X161910858Y-119968748D01*
X161731253Y-119789143D01*
X161745395Y-119775000D01*
X162104605Y-119775000D01*
X163149868Y-120820263D01*
X163427099Y-120709359D01*
X163670323Y-120063407D01*
X163647836Y-119373547D01*
X163427099Y-118840641D01*
X163149868Y-118729737D01*
X162104605Y-119775000D01*
X161745395Y-119775000D01*
X161731253Y-119760858D01*
X161910858Y-119581253D01*
X161925000Y-119595395D01*
X162970263Y-118550132D01*
X162859359Y-118272901D01*
X162213407Y-118029677D01*
X161523547Y-118052164D01*
X161342406Y-118127195D01*
X161126310Y-117605493D01*
X160995817Y-117475000D01*
X161126310Y-117344507D01*
X161347155Y-116811339D01*
X161636593Y-116920323D01*
X162326453Y-116897836D01*
X162859359Y-116677099D01*
X162970263Y-116399868D01*
X161925000Y-115354605D01*
X161910858Y-115368748D01*
X161731253Y-115189143D01*
X161745395Y-115175000D01*
X162104605Y-115175000D01*
X163149868Y-116220263D01*
X163427099Y-116109359D01*
X163670323Y-115463407D01*
X163647836Y-114773547D01*
X163427099Y-114240641D01*
X163149868Y-114129737D01*
X162104605Y-115175000D01*
X161745395Y-115175000D01*
X161731253Y-115160858D01*
X161910858Y-114981253D01*
X161925000Y-114995395D01*
X162970263Y-113950132D01*
X162859359Y-113672901D01*
X162213407Y-113429677D01*
X161523547Y-113452164D01*
X161307051Y-113541840D01*
X161190309Y-113260000D01*
X161798000Y-113260000D01*
X161798000Y-111752000D01*
X162052000Y-111752000D01*
X162052000Y-113260000D01*
X162802000Y-113260000D01*
X163418020Y-113086942D01*
X163920922Y-112691317D01*
X164234144Y-112133355D01*
X164265124Y-112005434D01*
X164145777Y-111752000D01*
X162052000Y-111752000D01*
X161798000Y-111752000D01*
X159704223Y-111752000D01*
X159584876Y-112005434D01*
X159615856Y-112133355D01*
X159787997Y-112440000D01*
X159519670Y-112440000D01*
X158955493Y-112673690D01*
X158523690Y-113105493D01*
X158290000Y-113669670D01*
X158290000Y-114280330D01*
X158523690Y-114844507D01*
X158904183Y-115225000D01*
X158523690Y-115605493D01*
X158290000Y-116169670D01*
X158290000Y-116780330D01*
X158355573Y-116938638D01*
X157915633Y-117378579D01*
X157856254Y-117418255D01*
X157816578Y-117477634D01*
X157816575Y-117477637D01*
X157699064Y-117653505D01*
X157643867Y-117931001D01*
X157657800Y-118001047D01*
X157657799Y-119687063D01*
X157507967Y-119749125D01*
X157480000Y-119721158D01*
X157480000Y-116407042D01*
X157494927Y-116331999D01*
X157480000Y-116256956D01*
X157480000Y-116256952D01*
X157435788Y-116034683D01*
X157267371Y-115782629D01*
X157203750Y-115740119D01*
X154178000Y-112714370D01*
X154178000Y-112573905D01*
X154023324Y-112200482D01*
X153737518Y-111914676D01*
X153364095Y-111760000D01*
X152959905Y-111760000D01*
X152586482Y-111914676D01*
X152487158Y-112014000D01*
X146171000Y-112014000D01*
X146171000Y-111686789D01*
X145987825Y-111244566D01*
X159584876Y-111244566D01*
X159704223Y-111498000D01*
X161798000Y-111498000D01*
X161798000Y-109990000D01*
X162052000Y-109990000D01*
X162052000Y-111498000D01*
X164145777Y-111498000D01*
X164265124Y-111244566D01*
X164234144Y-111116645D01*
X163920922Y-110558683D01*
X163418020Y-110163058D01*
X162802000Y-109990000D01*
X162052000Y-109990000D01*
X161798000Y-109990000D01*
X161048000Y-109990000D01*
X160431980Y-110163058D01*
X159929078Y-110558683D01*
X159615856Y-111116645D01*
X159584876Y-111244566D01*
X145987825Y-111244566D01*
X145920563Y-111082183D01*
X145457817Y-110619437D01*
X144853211Y-110369000D01*
X144198789Y-110369000D01*
X143594183Y-110619437D01*
X143256000Y-110957620D01*
X142917817Y-110619437D01*
X142313211Y-110369000D01*
X141658789Y-110369000D01*
X141054183Y-110619437D01*
X140591437Y-111082183D01*
X140552654Y-111175812D01*
X140529518Y-111152676D01*
X140156095Y-110998000D01*
X139751905Y-110998000D01*
X139378482Y-111152676D01*
X139175741Y-111355417D01*
X139062563Y-111082183D01*
X138599817Y-110619437D01*
X137995211Y-110369000D01*
X137340789Y-110369000D01*
X136736183Y-110619437D01*
X136398000Y-110957620D01*
X136059817Y-110619437D01*
X135455211Y-110369000D01*
X134800789Y-110369000D01*
X134196183Y-110619437D01*
X133772543Y-111043077D01*
X133747766Y-111033839D01*
X132767605Y-112014000D01*
X133747766Y-112994161D01*
X133772543Y-112984923D01*
X134196183Y-113408563D01*
X134800789Y-113659000D01*
X135455211Y-113659000D01*
X136059817Y-113408563D01*
X136398000Y-113070380D01*
X136736183Y-113408563D01*
X137314218Y-113647994D01*
X135849412Y-115112800D01*
X132297642Y-115112800D01*
X132147518Y-114962676D01*
X131774095Y-114808000D01*
X131369905Y-114808000D01*
X130996482Y-114962676D01*
X130710676Y-115248482D01*
X130556000Y-115621905D01*
X130556000Y-116026095D01*
X130710676Y-116399518D01*
X130996482Y-116685324D01*
X131369905Y-116840000D01*
X131774095Y-116840000D01*
X132147518Y-116685324D01*
X132297642Y-116535200D01*
X136073959Y-116535200D01*
X136144000Y-116549132D01*
X136214041Y-116535200D01*
X136214046Y-116535200D01*
X136421496Y-116493936D01*
X136656746Y-116336746D01*
X136696424Y-116277364D01*
X139943789Y-113030000D01*
X140156095Y-113030000D01*
X140529518Y-112875324D01*
X140552654Y-112852188D01*
X140591437Y-112945817D01*
X141054183Y-113408563D01*
X141658789Y-113659000D01*
X142313211Y-113659000D01*
X142917817Y-113408563D01*
X143256000Y-113070380D01*
X143594183Y-113408563D01*
X144198789Y-113659000D01*
X144853211Y-113659000D01*
X145167268Y-113528913D01*
X145212952Y-113538000D01*
X145212953Y-113538000D01*
X145288000Y-113552928D01*
X145363047Y-113538000D01*
X152487158Y-113538000D01*
X152586482Y-113637324D01*
X152959905Y-113792000D01*
X153100370Y-113792000D01*
X155956000Y-116647631D01*
X155956001Y-119721157D01*
X155856676Y-119820482D01*
X155702000Y-120193905D01*
X155702000Y-120334369D01*
X151576370Y-124460000D01*
X137160000Y-124460000D01*
X137160000Y-118596500D01*
X137481518Y-118463324D01*
X137767324Y-118177518D01*
X137922000Y-117804095D01*
X137922000Y-117399905D01*
X137767324Y-117026482D01*
X137481518Y-116740676D01*
X137108095Y-116586000D01*
X136703905Y-116586000D01*
X136330482Y-116740676D01*
X136044676Y-117026482D01*
X135890000Y-117399905D01*
X135890000Y-117532986D01*
X135848630Y-117560629D01*
X135806119Y-117624251D01*
X135806118Y-117624252D01*
X135680213Y-117812683D01*
X135621073Y-118110000D01*
X135636001Y-118185048D01*
X135636000Y-124460000D01*
X122936000Y-124460000D01*
X122936000Y-113030000D01*
X127021500Y-113030000D01*
X127154676Y-113351518D01*
X127440482Y-113637324D01*
X127813905Y-113792000D01*
X128218095Y-113792000D01*
X128591518Y-113637324D01*
X128877324Y-113351518D01*
X128930576Y-113222956D01*
X129116183Y-113408563D01*
X129720789Y-113659000D01*
X130375211Y-113659000D01*
X130979817Y-113408563D01*
X131214614Y-113173766D01*
X131607839Y-113173766D01*
X131707726Y-113441658D01*
X132321074Y-113669851D01*
X132975059Y-113645956D01*
X133468274Y-113441658D01*
X133568161Y-113173766D01*
X132588000Y-112193605D01*
X131607839Y-113173766D01*
X131214614Y-113173766D01*
X131403457Y-112984923D01*
X131428234Y-112994161D01*
X132408395Y-112014000D01*
X131428234Y-111033839D01*
X131403457Y-111043077D01*
X131214614Y-110854234D01*
X131607839Y-110854234D01*
X132588000Y-111834395D01*
X133568161Y-110854234D01*
X133468274Y-110586342D01*
X132854926Y-110358149D01*
X132200941Y-110382044D01*
X131707726Y-110586342D01*
X131607839Y-110854234D01*
X131214614Y-110854234D01*
X130979817Y-110619437D01*
X130375211Y-110369000D01*
X129720789Y-110369000D01*
X129116183Y-110619437D01*
X128653437Y-111082183D01*
X128403000Y-111686789D01*
X128403000Y-111836590D01*
X128218095Y-111760000D01*
X128085014Y-111760000D01*
X128057371Y-111718629D01*
X127805317Y-111550212D01*
X127583048Y-111506000D01*
X127583043Y-111506000D01*
X127508000Y-111491073D01*
X127432957Y-111506000D01*
X122848842Y-111506000D01*
X122749518Y-111406676D01*
X122376095Y-111252000D01*
X121971905Y-111252000D01*
X121598482Y-111406676D01*
X121312676Y-111692482D01*
X121158000Y-112065905D01*
X114947700Y-112065905D01*
X114947700Y-108597700D01*
X164452300Y-108597700D01*
X164452301Y-126352300D01*
G04 #@! TD*
M02*
